<svg width="1238" height="640" viewBox="0 0 1238 640" fill="none" xmlns="http://www.w3.org/2000/svg">
<rect x="48" y="175.003" width="1139" height="70" rx="35" fill="#E8E8E8"/>
<path d="M49.9999 168.336L60.9436 176.32L74.4916 176.295L78.652 189.186L89.627 197.128L85.4165 210.003L89.627 222.878L78.652 230.82L74.4916 243.711L60.9436 243.686L49.9999 251.67L39.0561 243.686L25.5082 243.711L21.3478 230.82L10.3728 222.878L14.5832 210.003L10.3728 197.128L21.3478 189.186L25.5082 176.295L39.0561 176.32L49.9999 168.336Z" fill="#323031"/>
<path d="M35.4165 210.003L45.8332 220.42L66.6665 199.586" fill="#323031"/>
<path d="M35.4165 210.003L45.8332 220.42L66.6665 199.586" stroke="white" stroke-width="6" stroke-linecap="round" stroke-linejoin="round"/>
<path d="M611.5 168.336L622.444 176.32L635.992 176.295L640.152 189.186L651.127 197.128L646.917 210.003L651.127 222.878L640.152 230.82L635.992 243.711L622.444 243.686L611.5 251.67L600.556 243.686L587.008 243.711L582.848 230.82L571.873 222.878L576.083 210.003L571.873 197.128L582.848 189.186L587.008 176.295L600.556 176.32L611.5 168.336Z" fill="#323031"/>
<path d="M596.917 210.003L607.333 220.42L628.167 199.586" fill="#323031"/>
<path d="M596.917 210.003L607.333 220.42L628.167 199.586" stroke="white" stroke-width="6" stroke-linecap="round" stroke-linejoin="round"/>
<path d="M1174 169.336L1184.94 177.32L1198.49 177.295L1202.65 190.186L1213.63 198.128L1209.42 211.003L1213.63 223.878L1202.65 231.82L1198.49 244.711L1184.94 244.686L1174 252.67L1163.06 244.686L1149.51 244.711L1145.35 231.82L1134.37 223.878L1138.58 211.003L1134.37 198.128L1145.35 190.186L1149.51 177.295L1163.06 177.32L1174 169.336Z" fill="#323031"/>
<path d="M1159.42 211.003L1169.83 221.42L1190.67 200.586" fill="#323031"/>
<path d="M1159.42 211.003L1169.83 221.42L1190.67 200.586" stroke="white" stroke-width="6" stroke-linecap="round" stroke-linejoin="round"/>
<line x1="49.5" y1="100.503" x2="49.5" y2="158.503" stroke="#323031" stroke-width="3" stroke-linecap="round"/>
<circle cx="49.5" cy="94.5029" r="9.5" fill="#323031"/>
<line x1="612" y1="100.503" x2="612" y2="158.503" stroke="#323031" stroke-width="3" stroke-linecap="round"/>
<circle cx="612" cy="94.5029" r="9.5" fill="#323031"/>
<line x1="1174.5" y1="100.503" x2="1174.5" y2="158.503" stroke="#323031" stroke-width="3" stroke-linecap="round"/>
<circle cx="1174.5" cy="94.5029" r="9.5" fill="#323031"/>
<line x1="49" y1="261.843" x2="49" y2="637.843" stroke="#323031" stroke-width="3" stroke-linecap="round" stroke-dasharray="8 8"/>
<line x1="613" y1="261.503" x2="613" y2="390.503" stroke="#323031" stroke-width="3" stroke-linecap="round" stroke-dasharray="8 8"/>
<line x1="613" y1="514.843" x2="613" y2="637.843" stroke="#323031" stroke-width="3" stroke-linecap="round" stroke-dasharray="8 8"/>
<line x1="1176" y1="261.843" x2="1176" y2="477.843" stroke="#323031" stroke-width="3" stroke-linecap="round" stroke-dasharray="8 8"/>
<g clip-path="url(#clip0_293_4638)">
<rect x="1.5" y="291.343" width="262" height="62" rx="31" fill="#E8E8E8"/>
<rect x="1.5" y="291.343" width="62" height="62" rx="31" fill="#727272"/>
<path fill-rule="evenodd" clip-rule="evenodd" d="M22.625 324.378C23.5711 324.378 24.4823 324.735 25.176 325.378C25.8697 326.022 26.2947 326.903 26.3656 327.847L26.375 328.128V333.753C26.3753 334.699 26.018 335.61 25.3747 336.304C24.7314 336.998 23.8497 337.423 22.9062 337.494L22.625 337.503H17C16.0539 337.503 15.1427 337.146 14.449 336.503C13.7553 335.859 13.3303 334.978 13.2594 334.034L13.25 333.753V328.128C13.2497 327.182 13.607 326.271 14.2503 325.577C14.8936 324.883 15.7753 324.458 16.7188 324.387L17 324.378H22.625ZM39.5 331.878C39.9779 331.878 40.4376 332.061 40.7851 332.39C41.1326 332.718 41.3417 333.166 41.3697 333.643C41.3977 334.12 41.2425 334.59 40.9358 334.956C40.629 335.323 40.1939 335.558 39.7194 335.615L39.5 335.628H32C31.5221 335.627 31.0624 335.444 30.7149 335.116C30.3674 334.788 30.1583 334.34 30.1303 333.863C30.1023 333.386 30.2575 332.916 30.5642 332.549C30.871 332.183 31.3061 331.947 31.7806 331.891L32 331.878H39.5ZM22.625 328.128H17V333.753H22.625V328.128ZM47 324.378C47.4973 324.378 47.9742 324.575 48.3258 324.927C48.6775 325.279 48.875 325.756 48.875 326.253C48.875 326.75 48.6775 327.227 48.3258 327.579C47.9742 327.93 47.4973 328.128 47 328.128H32C31.5027 328.128 31.0258 327.93 30.6742 327.579C30.3225 327.227 30.125 326.75 30.125 326.253C30.125 325.756 30.3225 325.279 30.6742 324.927C31.0258 324.575 31.5027 324.378 32 324.378H47ZM22.625 305.628C23.6196 305.628 24.5734 306.023 25.2766 306.726C25.9799 307.43 26.375 308.383 26.375 309.378V315.003C26.375 315.997 25.9799 316.951 25.2766 317.655C24.5734 318.358 23.6196 318.753 22.625 318.753H17C16.0054 318.753 15.0516 318.358 14.3483 317.655C13.6451 316.951 13.25 315.997 13.25 315.003V309.378C13.25 308.383 13.6451 307.43 14.3483 306.726C15.0516 306.023 16.0054 305.628 17 305.628H22.625ZM39.5 313.128C39.9779 313.128 40.4376 313.311 40.7851 313.64C41.1326 313.968 41.3417 314.416 41.3697 314.893C41.3977 315.37 41.2425 315.84 40.9358 316.206C40.629 316.573 40.1939 316.808 39.7194 316.865L39.5 316.878H32C31.5221 316.877 31.0624 316.694 30.7149 316.366C30.3674 316.038 30.1583 315.59 30.1303 315.113C30.1023 314.636 30.2575 314.166 30.5642 313.799C30.871 313.433 31.3061 313.197 31.7806 313.141L32 313.128H39.5ZM22.625 309.378H17V315.003H22.625V309.378ZM47 305.628C47.4779 305.628 47.9376 305.811 48.2851 306.14C48.6326 306.468 48.8417 306.916 48.8697 307.393C48.8977 307.87 48.7425 308.34 48.4358 308.706C48.129 309.073 47.6939 309.308 47.2194 309.365L47 309.378H32C31.5221 309.377 31.0624 309.194 30.7149 308.866C30.3674 308.538 30.1583 308.09 30.1303 307.613C30.1023 307.136 30.2575 306.666 30.5642 306.299C30.871 305.933 31.3061 305.697 31.7806 305.641L32 305.628H47Z" fill="white"/>
<path d="M80.842 316.243C80.89 316.459 80.914 316.603 80.914 316.675C80.914 316.879 80.86 317.041 80.752 317.161C80.644 317.269 80.482 317.323 80.266 317.323H76.954V328.843H75.658V317.323H71.77V316.243H80.842ZM87.4692 318.763C88.5012 318.763 89.3172 319.063 89.9172 319.663C90.5172 320.251 90.8172 321.055 90.8172 322.075V328.843H89.5932V322.201C89.5932 321.421 89.4012 320.821 89.0172 320.401C88.6332 319.981 88.0812 319.771 87.3612 319.771C86.8092 319.771 86.2272 319.897 85.6152 320.149C85.0032 320.389 84.4572 320.713 83.9772 321.121V328.843H82.7532V314.605H83.9772V319.951C84.5052 319.567 85.0692 319.273 85.6692 319.069C86.2692 318.865 86.8692 318.763 87.4692 318.763ZM101.813 323.191C101.813 323.467 101.801 323.743 101.777 324.019H94.6131C94.6371 325.267 94.9131 326.239 95.4411 326.935C95.9811 327.631 96.7251 327.979 97.6731 327.979C98.3211 327.979 98.8671 327.853 99.3111 327.601C99.7671 327.349 100.145 326.947 100.445 326.395C100.529 326.239 100.655 326.161 100.823 326.161C101.015 326.161 101.279 326.275 101.615 326.503C101.351 327.283 100.865 327.901 100.157 328.357C99.4491 328.801 98.6211 329.023 97.6731 329.023C96.7971 329.023 96.0291 328.819 95.3691 328.411C94.7211 327.991 94.2231 327.397 93.8751 326.629C93.5271 325.849 93.3531 324.931 93.3531 323.875C93.3531 322.279 93.7491 321.031 94.5411 320.131C95.3331 319.219 96.4191 318.763 97.7991 318.763C99.0591 318.763 100.043 319.153 100.751 319.933C101.459 320.713 101.813 321.799 101.813 323.191ZM100.553 323.047C100.553 320.887 99.6171 319.807 97.7451 319.807C96.8331 319.807 96.1131 320.083 95.5851 320.635C95.0571 321.187 94.7451 321.991 94.6491 323.047H100.553ZM107.457 329.023C106.065 329.023 105.015 328.591 104.307 327.727C103.599 326.863 103.245 325.579 103.245 323.875C103.245 320.467 104.649 318.763 107.457 318.763C110.265 318.763 111.669 320.467 111.669 323.875C111.669 325.579 111.315 326.863 110.607 327.727C109.899 328.591 108.849 329.023 107.457 329.023ZM107.457 328.015C108.477 328.015 109.221 327.685 109.689 327.025C110.169 326.353 110.409 325.303 110.409 323.875C110.409 322.459 110.169 321.421 109.689 320.761C109.221 320.101 108.477 319.771 107.457 319.771C106.437 319.771 105.687 320.101 105.207 320.761C104.739 321.421 104.505 322.459 104.505 323.875C104.505 325.303 104.739 326.353 105.207 327.025C105.687 327.685 106.437 328.015 107.457 328.015ZM117.895 318.817C118.315 318.817 118.633 318.889 118.849 319.033C119.077 319.165 119.191 319.369 119.191 319.645C119.191 319.837 119.125 320.011 118.993 320.167C118.705 320.011 118.309 319.933 117.805 319.933C117.001 319.933 116.353 320.251 115.861 320.887C115.381 321.523 115.141 322.357 115.141 323.389V328.843H113.917V318.943H115.141V320.725C115.417 320.173 115.807 319.717 116.311 319.357C116.815 318.997 117.343 318.817 117.895 318.817ZM121.574 318.943H122.798V328.843H121.574V318.943ZM122.114 317.125C121.574 317.125 121.304 316.855 121.304 316.315V316.153C121.304 315.613 121.574 315.343 122.114 315.343H122.258C122.798 315.343 123.068 315.613 123.068 316.153V316.315C123.068 316.855 122.798 317.125 122.258 317.125H122.114ZM134.139 323.191C134.139 323.467 134.127 323.743 134.103 324.019H126.939C126.963 325.267 127.239 326.239 127.767 326.935C128.307 327.631 129.051 327.979 129.999 327.979C130.647 327.979 131.193 327.853 131.637 327.601C132.093 327.349 132.471 326.947 132.771 326.395C132.855 326.239 132.981 326.161 133.149 326.161C133.341 326.161 133.605 326.275 133.941 326.503C133.677 327.283 133.191 327.901 132.483 328.357C131.775 328.801 130.947 329.023 129.999 329.023C129.123 329.023 128.355 328.819 127.695 328.411C127.047 327.991 126.549 327.397 126.201 326.629C125.853 325.849 125.679 324.931 125.679 323.875C125.679 322.279 126.075 321.031 126.867 320.131C127.659 319.219 128.745 318.763 130.125 318.763C131.385 318.763 132.369 319.153 133.077 319.933C133.785 320.713 134.139 321.799 134.139 323.191ZM132.879 323.047C132.879 320.887 131.943 319.807 130.071 319.807C129.159 319.807 128.439 320.083 127.911 320.635C127.383 321.187 127.071 321.991 126.975 323.047H132.879Z" fill="#323031"/>
</g>
<path d="M96.94 384.103V386.003H89.26V384.103H91.7V375.363C91.14 375.763 90.5867 375.963 90.04 375.963C89.6267 375.963 89.28 375.85 89 375.623C88.7333 375.396 88.6 375.036 88.6 374.543C88.6 374.276 88.6333 374.016 88.7 373.763C89.3267 373.696 90.06 373.51 90.9 373.203C91.74 372.883 92.4067 372.483 92.9 372.003H94.6V384.103H96.94ZM104.1 383.343H98.2797V382.023C99.5997 380.276 100.613 378.616 101.32 377.043C102.026 375.456 102.446 373.776 102.58 372.003C102.846 371.976 103.033 371.963 103.14 371.963C103.9 371.963 104.48 372.143 104.88 372.503C105.28 372.863 105.48 373.363 105.48 374.003C105.48 374.763 105.22 375.623 104.7 376.583C104.193 377.543 103.573 378.456 102.84 379.323C102.12 380.19 101.446 380.87 100.82 381.363H104.1V378.563H106.98V381.363H108.2V383.343H106.98V386.003H104.1V383.343ZM110.429 382.483L113.389 379.523L110.429 376.563L111.569 375.423L114.529 378.383L117.489 375.423L118.629 376.563L115.669 379.523L118.629 382.483L117.489 383.623L114.529 380.663L111.569 383.623L110.429 382.483ZM126.401 371.903C128.001 371.903 129.228 372.356 130.081 373.263C130.948 374.17 131.381 375.483 131.381 377.203C131.381 378.803 131.101 380.29 130.541 381.663C129.981 383.023 129.161 384.11 128.081 384.923C127.014 385.736 125.741 386.143 124.261 386.143C123.608 386.143 123.141 385.99 122.861 385.683C122.594 385.363 122.461 384.876 122.461 384.223C123.941 384.223 125.141 383.89 126.061 383.223C126.981 382.556 127.641 381.616 128.041 380.403C127.321 380.816 126.554 381.023 125.741 381.023C124.474 381.023 123.421 380.663 122.581 379.943C121.741 379.223 121.321 378.063 121.321 376.463C121.321 375.516 121.541 374.703 121.981 374.023C122.434 373.33 123.048 372.803 123.821 372.443C124.594 372.083 125.454 371.903 126.401 371.903ZM126.341 379.043C127.048 379.043 127.741 378.823 128.421 378.383C128.461 377.996 128.481 377.603 128.481 377.203C128.481 376.376 128.421 375.73 128.301 375.263C128.181 374.783 127.968 374.436 127.661 374.223C127.354 373.996 126.921 373.883 126.361 373.883C125.654 373.883 125.121 374.116 124.761 374.583C124.401 375.05 124.221 375.743 124.221 376.663C124.221 377.463 124.408 378.063 124.781 378.463C125.154 378.85 125.674 379.043 126.341 379.043ZM138.664 386.243C136.784 386.243 135.377 385.643 134.444 384.443C133.524 383.23 133.064 381.496 133.064 379.243C133.064 376.856 133.524 375.023 134.444 373.743C135.377 372.45 136.784 371.803 138.664 371.803C140.544 371.803 141.944 372.45 142.864 373.743C143.797 375.023 144.264 376.856 144.264 379.243C144.264 381.496 143.797 383.23 142.864 384.443C141.944 385.643 140.544 386.243 138.664 386.243ZM138.664 384.203C139.664 384.203 140.351 383.776 140.724 382.923C141.111 382.056 141.304 380.83 141.304 379.243C141.304 377.496 141.111 376.163 140.724 375.243C140.351 374.31 139.664 373.843 138.664 373.843C137.637 373.843 136.937 374.303 136.564 375.223C136.204 376.143 136.024 377.483 136.024 379.243C136.024 380.843 136.211 382.07 136.584 382.923C136.957 383.776 137.651 384.203 138.664 384.203ZM163.843 374.803C164.896 374.803 165.723 375.116 166.323 375.743C166.936 376.356 167.243 377.21 167.243 378.303V386.003H164.263V378.363C164.263 377.71 164.169 377.27 163.983 377.043C163.809 376.803 163.469 376.683 162.963 376.683C162.203 376.683 161.563 377.016 161.043 377.683V377.923V386.003H158.083V378.163C158.083 377.603 158.003 377.216 157.843 377.003C157.696 376.79 157.416 376.683 157.003 376.683C156.283 376.683 155.556 377.116 154.823 377.983V386.003H151.863V378.943C151.863 377.05 151.783 375.883 151.623 375.443C151.876 375.296 152.196 375.176 152.583 375.083C152.969 374.976 153.323 374.923 153.643 374.923C154.003 374.923 154.269 375.03 154.443 375.243C154.629 375.443 154.749 375.79 154.803 376.283C155.283 375.763 155.783 375.39 156.303 375.163C156.823 374.923 157.403 374.803 158.043 374.803C158.656 374.803 159.189 374.93 159.643 375.183C160.096 375.423 160.443 375.776 160.683 376.243C161.429 375.283 162.483 374.803 163.843 374.803ZM170.265 375.003H173.225V386.003H170.265V375.003ZM171.605 372.983C170.565 372.983 170.045 372.463 170.045 371.423V371.123C170.045 370.083 170.565 369.563 171.605 369.563H171.885C172.925 369.563 173.445 370.083 173.445 371.123V371.423C173.445 372.463 172.925 372.983 171.885 372.983H171.605ZM185.627 383.243C185.627 383.91 185.653 384.41 185.707 384.743C185.76 385.076 185.86 385.383 186.007 385.663C185.22 385.956 184.407 386.103 183.567 386.103C183.233 386.103 183 385.943 182.867 385.623C182.733 385.303 182.667 384.75 182.667 383.963V378.743C182.667 378.05 182.56 377.57 182.347 377.303C182.147 377.023 181.787 376.883 181.267 376.883C180.573 376.883 179.813 377.223 178.987 377.903V386.003H176.027V378.603C176.027 377.71 176.007 377.023 175.967 376.543C175.94 376.063 175.88 375.676 175.787 375.383C176.773 375.076 177.58 374.923 178.207 374.923C178.487 374.923 178.687 375.016 178.807 375.203C178.927 375.376 178.987 375.67 178.987 376.083V376.323C179.667 375.75 180.24 375.356 180.707 375.143C181.187 374.916 181.687 374.803 182.207 374.803C183.353 374.803 184.207 375.116 184.767 375.743C185.34 376.356 185.627 377.296 185.627 378.563V383.243ZM197.01 388.123C195.97 386.763 195.203 385.256 194.71 383.603C194.23 381.936 193.99 380.203 193.99 378.403C193.99 376.616 194.23 374.903 194.71 373.263C195.203 371.61 195.97 370.096 197.01 368.723H199.09C198.423 370.31 197.91 371.876 197.55 373.423C197.19 374.956 197.01 376.616 197.01 378.403C197.01 380.203 197.19 381.876 197.55 383.423C197.91 384.97 198.423 386.536 199.09 388.123H197.01ZM206.463 372.003C208.276 372.003 209.656 372.39 210.603 373.163C211.549 373.936 212.023 375.07 212.023 376.563C212.023 378.096 211.536 379.283 210.563 380.123C209.603 380.963 208.236 381.383 206.463 381.383H205.183V386.003H202.103V372.003H206.463ZM206.263 379.103C207.196 379.103 207.869 378.903 208.283 378.503C208.696 378.103 208.903 377.456 208.903 376.563C208.903 375.683 208.696 375.05 208.283 374.663C207.869 374.276 207.196 374.083 206.263 374.083H205.183V379.103H206.263ZM218.868 372.123C218.508 372.123 218.228 372.263 218.028 372.543C217.841 372.823 217.748 373.223 217.748 373.743V375.003H219.828V376.843H217.748V386.003H214.788V376.843H213.128V375.003H214.788V373.723C214.788 372.59 215.081 371.716 215.668 371.103C216.268 370.476 217.121 370.163 218.228 370.163C218.988 370.163 219.594 370.29 220.048 370.543C220.514 370.783 220.748 371.103 220.748 371.503C220.748 371.676 220.721 371.85 220.668 372.023C220.614 372.183 220.541 372.316 220.448 372.423C219.994 372.223 219.468 372.123 218.868 372.123ZM221.588 370.183H224.548V386.003H221.588V370.183ZM227.344 375.003H230.304V386.003H227.344V375.003ZM228.684 372.983C227.644 372.983 227.124 372.463 227.124 371.423V371.123C227.124 370.083 227.644 369.563 228.684 369.563H228.964C230.004 369.563 230.524 370.083 230.524 371.123V371.423C230.524 372.463 230.004 372.983 228.964 372.983H228.684ZM238.025 386.203C234.345 386.203 232.505 384.283 232.505 380.443C232.505 378.683 232.979 377.303 233.925 376.303C234.872 375.303 236.179 374.803 237.845 374.803C239.152 374.803 240.225 375.13 241.065 375.783C241.919 376.423 242.419 377.296 242.565 378.403C241.792 378.87 241.152 379.103 240.645 379.103C240.432 379.103 240.252 379.036 240.105 378.903C239.972 378.77 239.859 378.556 239.765 378.263C239.565 377.703 239.319 377.31 239.025 377.083C238.732 376.843 238.339 376.723 237.845 376.723C237.099 376.723 236.519 377.043 236.105 377.683C235.705 378.323 235.505 379.243 235.505 380.443C235.505 381.736 235.705 382.69 236.105 383.303C236.519 383.903 237.159 384.203 238.025 384.203C238.625 384.203 239.099 384.003 239.445 383.603C239.792 383.19 240.052 382.536 240.225 381.643C240.959 381.643 241.485 381.776 241.805 382.043C242.125 382.31 242.285 382.743 242.285 383.343C242.285 383.85 242.085 384.323 241.685 384.763C241.299 385.203 240.779 385.556 240.125 385.823C239.472 386.076 238.772 386.203 238.025 386.203ZM251.508 374.803C252.468 374.803 253.228 375.096 253.788 375.683C254.348 376.27 254.628 377.07 254.628 378.083V386.003H251.668V378.423C251.668 377.89 251.568 377.51 251.368 377.283C251.168 377.043 250.842 376.923 250.388 376.923C249.495 376.923 248.575 377.31 247.628 378.083V386.003H244.668V370.183H247.628V376.343C248.135 375.876 248.735 375.503 249.428 375.223C250.135 374.943 250.828 374.803 251.508 374.803ZM263.886 384.063C264.033 384.103 264.146 384.19 264.226 384.323C264.306 384.456 264.346 384.616 264.346 384.803C264.346 385.083 264.259 385.31 264.086 385.483C263.873 385.696 263.519 385.87 263.026 386.003C262.546 386.136 262.013 386.203 261.426 386.203C260.506 386.203 259.766 385.95 259.206 385.443C258.646 384.923 258.366 384.236 258.366 383.383V376.883H256.686V375.003H258.366V372.003H261.326V375.003H263.406V376.883H261.326V383.123C261.326 383.59 261.399 383.923 261.546 384.123C261.706 384.31 261.979 384.403 262.366 384.403C262.793 384.403 263.299 384.29 263.886 384.063ZM266.052 388.123C266.718 386.536 267.232 384.97 267.592 383.423C267.952 381.876 268.132 380.203 268.132 378.403C268.132 376.616 267.952 374.956 267.592 373.423C267.232 371.876 266.718 370.31 266.052 368.723H268.132C269.172 370.096 269.932 371.61 270.412 373.263C270.905 374.903 271.152 376.616 271.152 378.403C271.152 380.203 270.905 381.936 270.412 383.603C269.932 385.256 269.172 386.763 268.132 388.123H266.052Z" fill="#323031"/>
<path d="M547.82 489.763C547.82 491.109 547.36 492.376 546.44 493.563C545.533 494.736 544.107 496.003 542.16 497.363H547.52V499.343H538.54V497.823C540.3 496.383 541.613 495.236 542.48 494.383C543.36 493.529 543.987 492.736 544.36 492.003C544.733 491.269 544.92 490.456 544.92 489.563C544.92 488.896 544.747 488.356 544.4 487.943C544.053 487.516 543.56 487.303 542.92 487.303C542.24 487.303 541.693 487.563 541.28 488.083C540.88 488.603 540.647 489.336 540.58 490.283C539.7 490.283 539.073 490.129 538.7 489.823C538.34 489.516 538.16 489.029 538.16 488.363C538.16 487.896 538.36 487.429 538.76 486.963C539.173 486.483 539.74 486.096 540.46 485.803C541.193 485.496 542.013 485.343 542.92 485.343C544.4 485.343 545.587 485.729 546.48 486.503C547.373 487.263 547.82 488.349 547.82 489.763ZM554.642 499.583C552.762 499.583 551.356 498.983 550.422 497.783C549.502 496.569 549.042 494.836 549.042 492.583C549.042 490.196 549.502 488.363 550.422 487.083C551.356 485.789 552.762 485.143 554.642 485.143C556.522 485.143 557.922 485.789 558.842 487.083C559.776 488.363 560.242 490.196 560.242 492.583C560.242 494.836 559.776 496.569 558.842 497.783C557.922 498.983 556.522 499.583 554.642 499.583ZM554.642 497.543C555.642 497.543 556.329 497.116 556.702 496.263C557.089 495.396 557.282 494.169 557.282 492.583C557.282 490.836 557.089 489.503 556.702 488.583C556.329 487.649 555.642 487.183 554.642 487.183C553.616 487.183 552.916 487.643 552.542 488.563C552.182 489.483 552.002 490.823 552.002 492.583C552.002 494.183 552.189 495.409 552.562 496.263C552.936 497.116 553.629 497.543 554.642 497.543ZM562.945 495.823L565.905 492.863L562.945 489.903L564.085 488.763L567.045 491.723L570.005 488.763L571.145 489.903L568.185 492.863L571.145 495.823L570.005 496.963L567.045 494.003L564.085 496.963L562.945 495.823ZM579.457 496.683H573.637V495.363C574.957 493.616 575.97 491.956 576.677 490.383C577.383 488.796 577.803 487.116 577.937 485.343C578.203 485.316 578.39 485.303 578.497 485.303C579.257 485.303 579.837 485.483 580.237 485.843C580.637 486.203 580.837 486.703 580.837 487.343C580.837 488.103 580.577 488.963 580.057 489.923C579.55 490.883 578.93 491.796 578.197 492.663C577.477 493.529 576.803 494.209 576.177 494.703H579.457V491.903H582.337V494.703H583.557V496.683H582.337V499.343H579.457V496.683ZM589.526 489.883C590.939 489.883 592.066 490.289 592.906 491.103C593.746 491.916 594.166 493.096 594.166 494.643C594.166 496.189 593.713 497.389 592.806 498.243C591.913 499.096 590.706 499.523 589.186 499.523C588.173 499.523 587.333 499.396 586.666 499.143C586.013 498.876 585.539 498.543 585.246 498.143C584.953 497.743 584.806 497.336 584.806 496.923C584.806 496.456 584.933 496.083 585.186 495.803C585.439 495.523 585.833 495.356 586.366 495.303C586.566 496.036 586.873 496.596 587.286 496.983C587.699 497.369 588.266 497.563 588.986 497.563C590.506 497.563 591.266 496.616 591.266 494.723C591.266 492.816 590.526 491.863 589.046 491.863C588.513 491.863 588.066 491.996 587.706 492.263C587.359 492.516 587.059 492.876 586.806 493.343L584.826 493.003L585.306 485.343H593.606V487.303H587.766L587.566 490.343C588.099 490.036 588.753 489.883 589.526 489.883ZM613.975 488.143C615.029 488.143 615.855 488.456 616.455 489.083C617.069 489.696 617.375 490.549 617.375 491.643V499.343H614.395V491.703C614.395 491.049 614.302 490.609 614.115 490.383C613.942 490.143 613.602 490.023 613.095 490.023C612.335 490.023 611.695 490.356 611.175 491.023V491.263V499.343H608.215V491.503C608.215 490.943 608.135 490.556 607.975 490.343C607.829 490.129 607.549 490.023 607.135 490.023C606.415 490.023 605.689 490.456 604.955 491.323V499.343H601.995V492.283C601.995 490.389 601.915 489.223 601.755 488.783C602.009 488.636 602.329 488.516 602.715 488.423C603.102 488.316 603.455 488.263 603.775 488.263C604.135 488.263 604.402 488.369 604.575 488.583C604.762 488.783 604.882 489.129 604.935 489.623C605.415 489.103 605.915 488.729 606.435 488.503C606.955 488.263 607.535 488.143 608.175 488.143C608.789 488.143 609.322 488.269 609.775 488.523C610.229 488.763 610.575 489.116 610.815 489.583C611.562 488.623 612.615 488.143 613.975 488.143ZM620.398 488.343H623.358V499.343H620.398V488.343ZM621.738 486.323C620.698 486.323 620.178 485.803 620.178 484.763V484.463C620.178 483.423 620.698 482.903 621.738 482.903H622.018C623.058 482.903 623.578 483.423 623.578 484.463V484.763C623.578 485.803 623.058 486.323 622.018 486.323H621.738ZM635.759 496.583C635.759 497.249 635.786 497.749 635.839 498.083C635.893 498.416 635.993 498.723 636.139 499.003C635.353 499.296 634.539 499.443 633.699 499.443C633.366 499.443 633.133 499.283 632.999 498.963C632.866 498.643 632.799 498.089 632.799 497.303V492.083C632.799 491.389 632.693 490.909 632.479 490.643C632.279 490.363 631.919 490.223 631.399 490.223C630.706 490.223 629.946 490.563 629.119 491.243V499.343H626.159V491.943C626.159 491.049 626.139 490.363 626.099 489.883C626.073 489.403 626.013 489.016 625.919 488.723C626.906 488.416 627.713 488.263 628.339 488.263C628.619 488.263 628.819 488.356 628.939 488.543C629.059 488.716 629.119 489.009 629.119 489.423V489.663C629.799 489.089 630.373 488.696 630.839 488.483C631.319 488.256 631.819 488.143 632.339 488.143C633.486 488.143 634.339 488.456 634.899 489.083C635.473 489.696 635.759 490.636 635.759 491.903V496.583ZM647.143 501.463C646.103 500.103 645.336 498.596 644.843 496.943C644.363 495.276 644.123 493.543 644.123 491.743C644.123 489.956 644.363 488.243 644.843 486.603C645.336 484.949 646.103 483.436 647.143 482.063H649.223C648.556 483.649 648.043 485.216 647.683 486.763C647.323 488.296 647.143 489.956 647.143 491.743C647.143 493.543 647.323 495.216 647.683 496.763C648.043 498.309 648.556 499.876 649.223 501.463H647.143ZM656.776 485.343C658.189 485.343 659.409 485.623 660.436 486.183C661.462 486.743 662.249 487.549 662.796 488.603C663.342 489.643 663.616 490.889 663.616 492.343C663.616 493.743 663.329 494.976 662.756 496.043C662.196 497.096 661.402 497.909 660.376 498.483C659.349 499.056 658.149 499.343 656.776 499.343H652.036V485.343H656.776ZM656.376 497.223C657.709 497.223 658.736 496.803 659.456 495.963C660.176 495.109 660.536 493.909 660.536 492.363C660.536 489.096 659.149 487.463 656.376 487.463H655.116V497.223H656.376ZM675.688 496.683C675.688 497.296 675.708 497.776 675.748 498.123C675.802 498.469 675.882 498.763 675.988 499.003C675.722 499.136 675.402 499.243 675.028 499.323C674.655 499.403 674.302 499.443 673.968 499.443C673.582 499.443 673.295 499.349 673.108 499.163C672.922 498.976 672.802 498.663 672.748 498.223C672.362 498.649 671.888 498.976 671.328 499.203C670.782 499.429 670.182 499.543 669.528 499.543C668.368 499.543 667.482 499.229 666.868 498.603C666.255 497.963 665.948 497.043 665.948 495.843V488.343H668.908V495.703C668.908 496.409 669.015 496.916 669.228 497.223C669.455 497.516 669.835 497.663 670.368 497.663C671.315 497.663 672.095 497.183 672.708 496.223V488.343H675.688V496.683ZM684.066 488.203C684.706 488.203 685.173 488.343 685.466 488.623C685.759 488.889 685.906 489.323 685.906 489.923C685.906 490.149 685.873 490.376 685.806 490.603C685.753 490.816 685.673 490.983 685.566 491.103C685.406 491.009 685.226 490.943 685.026 490.903C684.826 490.863 684.539 490.843 684.166 490.843C683.299 490.843 682.653 491.109 682.226 491.643C681.813 492.176 681.606 492.989 681.606 494.083V499.343H678.646V488.343H681.606V489.803C681.873 489.283 682.219 488.889 682.646 488.623C683.073 488.343 683.546 488.203 684.066 488.203ZM692.475 499.543C688.795 499.543 686.955 497.623 686.955 493.783C686.955 492.023 687.428 490.643 688.375 489.643C689.321 488.643 690.628 488.143 692.295 488.143C693.601 488.143 694.675 488.469 695.515 489.123C696.368 489.763 696.868 490.636 697.015 491.743C696.241 492.209 695.601 492.443 695.095 492.443C694.881 492.443 694.701 492.376 694.555 492.243C694.421 492.109 694.308 491.896 694.215 491.603C694.015 491.043 693.768 490.649 693.475 490.423C693.181 490.183 692.788 490.063 692.295 490.063C691.548 490.063 690.968 490.383 690.555 491.023C690.155 491.663 689.955 492.583 689.955 493.783C689.955 495.076 690.155 496.029 690.555 496.643C690.968 497.243 691.608 497.543 692.475 497.543C693.075 497.543 693.548 497.343 693.895 496.943C694.241 496.529 694.501 495.876 694.675 494.983C695.408 494.983 695.935 495.116 696.255 495.383C696.575 495.649 696.735 496.083 696.735 496.683C696.735 497.189 696.535 497.663 696.135 498.103C695.748 498.543 695.228 498.896 694.575 499.163C693.921 499.416 693.221 499.543 692.475 499.543ZM705.958 488.143C706.918 488.143 707.678 488.436 708.238 489.023C708.798 489.609 709.078 490.409 709.078 491.423V499.343H706.118V491.763C706.118 491.229 706.018 490.849 705.818 490.623C705.618 490.383 705.291 490.263 704.838 490.263C703.944 490.263 703.024 490.649 702.078 491.423V499.343H699.118V483.523H702.078V489.683C702.584 489.216 703.184 488.843 703.878 488.563C704.584 488.283 705.278 488.143 705.958 488.143ZM715.795 499.543C714.489 499.543 713.455 499.343 712.695 498.943C711.949 498.543 711.575 498.029 711.575 497.403C711.575 497.029 711.702 496.716 711.955 496.463C712.222 496.196 712.602 496.049 713.095 496.023C713.375 496.556 713.735 496.956 714.175 497.223C714.629 497.489 715.195 497.623 715.875 497.623C717.049 497.623 717.635 497.183 717.635 496.303C717.635 495.943 717.469 495.669 717.135 495.483C716.802 495.296 716.255 495.076 715.495 494.823C714.722 494.569 714.082 494.323 713.575 494.083C713.082 493.843 712.655 493.496 712.295 493.043C711.935 492.576 711.755 491.976 711.755 491.243C711.755 490.616 711.949 490.069 712.335 489.603C712.735 489.123 713.255 488.763 713.895 488.523C714.549 488.269 715.255 488.143 716.015 488.143C716.989 488.143 717.842 488.329 718.575 488.703C719.309 489.076 719.882 489.576 720.295 490.203C720.122 490.536 719.882 490.829 719.575 491.083C719.282 491.323 719.015 491.443 718.775 491.443C718.642 491.443 718.529 491.423 718.435 491.383C718.342 491.329 718.249 491.249 718.155 491.143C717.555 490.396 716.869 490.023 716.095 490.023C715.589 490.023 715.195 490.123 714.915 490.323C714.649 490.509 714.515 490.796 714.515 491.183C714.515 491.596 714.695 491.909 715.055 492.123C715.429 492.336 716.009 492.556 716.795 492.783C717.542 492.983 718.155 493.196 718.635 493.423C719.129 493.636 719.542 493.963 719.875 494.403C720.222 494.829 720.395 495.396 720.395 496.103C720.395 497.209 719.995 498.063 719.195 498.663C718.409 499.249 717.275 499.543 715.795 499.543ZM727.313 499.543C723.633 499.543 721.793 497.623 721.793 493.783C721.793 492.023 722.266 490.643 723.213 489.643C724.16 488.643 725.466 488.143 727.133 488.143C728.44 488.143 729.513 488.469 730.353 489.123C731.206 489.763 731.706 490.636 731.853 491.743C731.08 492.209 730.44 492.443 729.933 492.443C729.72 492.443 729.54 492.376 729.393 492.243C729.26 492.109 729.146 491.896 729.053 491.603C728.853 491.043 728.606 490.649 728.313 490.423C728.02 490.183 727.626 490.063 727.133 490.063C726.386 490.063 725.806 490.383 725.393 491.023C724.993 491.663 724.793 492.583 724.793 493.783C724.793 495.076 724.993 496.029 725.393 496.643C725.806 497.243 726.446 497.543 727.313 497.543C727.913 497.543 728.386 497.343 728.733 496.943C729.08 496.529 729.34 495.876 729.513 494.983C730.246 494.983 730.773 495.116 731.093 495.383C731.413 495.649 731.573 496.083 731.573 496.683C731.573 497.189 731.373 497.663 730.973 498.103C730.586 498.543 730.066 498.896 729.413 499.163C728.76 499.416 728.06 499.543 727.313 499.543ZM740.796 488.143C741.756 488.143 742.516 488.436 743.076 489.023C743.636 489.609 743.916 490.409 743.916 491.423V499.343H740.956V491.763C740.956 491.229 740.856 490.849 740.656 490.623C740.456 490.383 740.129 490.263 739.676 490.263C738.783 490.263 737.863 490.649 736.916 491.423V499.343H733.956V483.523H736.916V489.683C737.423 489.216 738.023 488.843 738.716 488.563C739.423 488.283 740.116 488.143 740.796 488.143ZM756.534 496.583C756.534 497.249 756.56 497.749 756.614 498.083C756.667 498.416 756.767 498.723 756.914 499.003C756.127 499.296 755.314 499.443 754.474 499.443C754.14 499.443 753.907 499.283 753.774 498.963C753.64 498.643 753.574 498.089 753.574 497.303V492.083C753.574 491.389 753.467 490.909 753.254 490.643C753.054 490.363 752.694 490.223 752.174 490.223C751.48 490.223 750.72 490.563 749.894 491.243V499.343H746.934V491.943C746.934 491.049 746.914 490.363 746.874 489.883C746.847 489.403 746.787 489.016 746.694 488.723C747.68 488.416 748.487 488.263 749.114 488.263C749.394 488.263 749.594 488.356 749.714 488.543C749.834 488.716 749.894 489.009 749.894 489.423V489.663C750.574 489.089 751.147 488.696 751.614 488.483C752.094 488.256 752.594 488.143 753.114 488.143C754.26 488.143 755.114 488.456 755.674 489.083C756.247 489.696 756.534 490.636 756.534 491.903V496.583ZM759.541 488.343H762.501V499.343H759.541V488.343ZM760.881 486.323C759.841 486.323 759.321 485.803 759.321 484.763V484.463C759.321 483.423 759.841 482.903 760.881 482.903H761.161C762.201 482.903 762.721 483.423 762.721 484.463V484.763C762.721 485.803 762.201 486.323 761.161 486.323H760.881ZM771.542 497.403C771.689 497.443 771.802 497.529 771.882 497.663C771.962 497.796 772.002 497.956 772.002 498.143C772.002 498.423 771.916 498.649 771.742 498.823C771.529 499.036 771.176 499.209 770.682 499.343C770.202 499.476 769.669 499.543 769.082 499.543C768.162 499.543 767.422 499.289 766.862 498.783C766.302 498.263 766.022 497.576 766.022 496.723V490.223H764.342V488.343H766.022V485.343H768.982V488.343H771.062V490.223H768.982V496.463C768.982 496.929 769.056 497.263 769.202 497.463C769.362 497.649 769.636 497.743 770.022 497.743C770.449 497.743 770.956 497.629 771.542 497.403ZM779.848 497.403C779.994 497.443 780.108 497.529 780.188 497.663C780.268 497.796 780.308 497.956 780.308 498.143C780.308 498.423 780.221 498.649 780.048 498.823C779.834 499.036 779.481 499.209 778.988 499.343C778.508 499.476 777.974 499.543 777.388 499.543C776.468 499.543 775.728 499.289 775.168 498.783C774.608 498.263 774.328 497.576 774.328 496.723V490.223H772.648V488.343H774.328V485.343H777.288V488.343H779.368V490.223H777.288V496.463C777.288 496.929 777.361 497.263 777.508 497.463C777.668 497.649 777.941 497.743 778.328 497.743C778.754 497.743 779.261 497.629 779.848 497.403ZM782.013 501.463C782.68 499.876 783.193 498.309 783.553 496.763C783.913 495.216 784.093 493.543 784.093 491.743C784.093 489.956 783.913 488.296 783.553 486.763C783.193 485.216 782.68 483.649 782.013 482.063H784.093C785.133 483.436 785.893 484.949 786.373 486.603C786.867 488.243 787.113 489.956 787.113 491.743C787.113 493.543 786.867 495.276 786.373 496.943C785.893 498.596 785.133 500.103 784.093 501.463H782.013Z" fill="#323031"/>
<path d="M1002.94 612.443V614.343H995.26V612.443H997.7V603.703C997.14 604.103 996.587 604.303 996.04 604.303C995.627 604.303 995.28 604.189 995 603.963C994.733 603.736 994.6 603.376 994.6 602.883C994.6 602.616 994.633 602.356 994.7 602.103C995.327 602.036 996.06 601.849 996.9 601.543C997.74 601.223 998.407 600.823 998.9 600.343H1000.6V612.443H1002.94ZM1014.2 604.763C1014.2 606.109 1013.74 607.376 1012.82 608.563C1011.91 609.736 1010.49 611.003 1008.54 612.363H1013.9V614.343H1004.92V612.823C1006.68 611.383 1007.99 610.236 1008.86 609.383C1009.74 608.529 1010.37 607.736 1010.74 607.003C1011.11 606.269 1011.3 605.456 1011.3 604.563C1011.3 603.896 1011.13 603.356 1010.78 602.943C1010.43 602.516 1009.94 602.303 1009.3 602.303C1008.62 602.303 1008.07 602.563 1007.66 603.083C1007.26 603.603 1007.03 604.336 1006.96 605.283C1006.08 605.283 1005.45 605.129 1005.08 604.823C1004.72 604.516 1004.54 604.029 1004.54 603.363C1004.54 602.896 1004.74 602.429 1005.14 601.963C1005.55 601.483 1006.12 601.096 1006.84 600.803C1007.57 600.496 1008.39 600.343 1009.3 600.343C1010.78 600.343 1011.97 600.729 1012.86 601.503C1013.75 602.263 1014.2 603.349 1014.2 604.763ZM1016.72 610.823L1019.68 607.863L1016.72 604.903L1017.86 603.763L1020.82 606.723L1023.78 603.763L1024.92 604.903L1021.96 607.863L1024.92 610.823L1023.78 611.963L1020.82 609.003L1017.86 611.963L1016.72 610.823ZM1033.23 611.683H1027.41V610.363C1028.73 608.616 1029.75 606.956 1030.45 605.383C1031.16 603.796 1031.58 602.116 1031.71 600.343C1031.98 600.316 1032.17 600.303 1032.27 600.303C1033.03 600.303 1033.61 600.483 1034.01 600.843C1034.41 601.203 1034.61 601.703 1034.61 602.343C1034.61 603.103 1034.35 603.963 1033.83 604.923C1033.33 605.883 1032.71 606.796 1031.97 607.663C1031.25 608.529 1030.58 609.209 1029.95 609.703H1033.23V606.903H1036.11V609.703H1037.33V611.683H1036.11V614.343H1033.23V611.683ZM1043.3 604.883C1044.72 604.883 1045.84 605.289 1046.68 606.103C1047.52 606.916 1047.94 608.096 1047.94 609.643C1047.94 611.189 1047.49 612.389 1046.58 613.243C1045.69 614.096 1044.48 614.523 1042.96 614.523C1041.95 614.523 1041.11 614.396 1040.44 614.143C1039.79 613.876 1039.32 613.543 1039.02 613.143C1038.73 612.743 1038.58 612.336 1038.58 611.923C1038.58 611.456 1038.71 611.083 1038.96 610.803C1039.22 610.523 1039.61 610.356 1040.14 610.303C1040.34 611.036 1040.65 611.596 1041.06 611.983C1041.48 612.369 1042.04 612.563 1042.76 612.563C1044.28 612.563 1045.04 611.616 1045.04 609.723C1045.04 607.816 1044.3 606.863 1042.82 606.863C1042.29 606.863 1041.84 606.996 1041.48 607.263C1041.14 607.516 1040.84 607.876 1040.58 608.343L1038.6 608.003L1039.08 600.343H1047.38V602.303H1041.54L1041.34 605.343C1041.88 605.036 1042.53 604.883 1043.3 604.883ZM1067.75 603.143C1068.81 603.143 1069.63 603.456 1070.23 604.083C1070.85 604.696 1071.15 605.549 1071.15 606.643V614.343H1068.17V606.703C1068.17 606.049 1068.08 605.609 1067.89 605.383C1067.72 605.143 1067.38 605.023 1066.87 605.023C1066.11 605.023 1065.47 605.356 1064.95 606.023V606.263V614.343H1061.99V606.503C1061.99 605.943 1061.91 605.556 1061.75 605.343C1061.61 605.129 1061.33 605.023 1060.91 605.023C1060.19 605.023 1059.47 605.456 1058.73 606.323V614.343H1055.77V607.283C1055.77 605.389 1055.69 604.223 1055.53 603.783C1055.79 603.636 1056.11 603.516 1056.49 603.423C1056.88 603.316 1057.23 603.263 1057.55 603.263C1057.91 603.263 1058.18 603.369 1058.35 603.583C1058.54 603.783 1058.66 604.129 1058.71 604.623C1059.19 604.103 1059.69 603.729 1060.21 603.503C1060.73 603.263 1061.31 603.143 1061.95 603.143C1062.57 603.143 1063.1 603.269 1063.55 603.523C1064.01 603.763 1064.35 604.116 1064.59 604.583C1065.34 603.623 1066.39 603.143 1067.75 603.143ZM1074.18 603.343H1077.14V614.343H1074.18V603.343ZM1075.52 601.323C1074.48 601.323 1073.96 600.803 1073.96 599.763V599.463C1073.96 598.423 1074.48 597.903 1075.52 597.903H1075.8C1076.84 597.903 1077.36 598.423 1077.36 599.463V599.763C1077.36 600.803 1076.84 601.323 1075.8 601.323H1075.52ZM1089.54 611.583C1089.54 612.249 1089.56 612.749 1089.62 613.083C1089.67 613.416 1089.77 613.723 1089.92 614.003C1089.13 614.296 1088.32 614.443 1087.48 614.443C1087.14 614.443 1086.91 614.283 1086.78 613.963C1086.64 613.643 1086.58 613.089 1086.58 612.303V607.083C1086.58 606.389 1086.47 605.909 1086.26 605.643C1086.06 605.363 1085.7 605.223 1085.18 605.223C1084.48 605.223 1083.72 605.563 1082.9 606.243V614.343H1079.94V606.943C1079.94 606.049 1079.92 605.363 1079.88 604.883C1079.85 604.403 1079.79 604.016 1079.7 603.723C1080.68 603.416 1081.49 603.263 1082.12 603.263C1082.4 603.263 1082.6 603.356 1082.72 603.543C1082.84 603.716 1082.9 604.009 1082.9 604.423V604.663C1083.58 604.089 1084.15 603.696 1084.62 603.483C1085.1 603.256 1085.6 603.143 1086.12 603.143C1087.26 603.143 1088.12 603.456 1088.68 604.083C1089.25 604.696 1089.54 605.636 1089.54 606.903V611.583ZM1100.92 616.463C1099.88 615.103 1099.11 613.596 1098.62 611.943C1098.14 610.276 1097.9 608.543 1097.9 606.743C1097.9 604.956 1098.14 603.243 1098.62 601.603C1099.11 599.949 1099.88 598.436 1100.92 597.063H1103C1102.33 598.649 1101.82 600.216 1101.46 601.763C1101.1 603.296 1100.92 604.956 1100.92 606.743C1100.92 608.543 1101.1 610.216 1101.46 611.763C1101.82 613.309 1102.33 614.876 1103 616.463H1100.92ZM1110.37 600.343C1112.19 600.343 1113.57 600.729 1114.51 601.503C1115.46 602.276 1115.93 603.409 1115.93 604.903C1115.93 606.436 1115.45 607.623 1114.47 608.463C1113.51 609.303 1112.15 609.723 1110.37 609.723H1109.09V614.343H1106.01V600.343H1110.37ZM1110.17 607.443C1111.11 607.443 1111.78 607.243 1112.19 606.843C1112.61 606.443 1112.81 605.796 1112.81 604.903C1112.81 604.023 1112.61 603.389 1112.19 603.003C1111.78 602.616 1111.11 602.423 1110.17 602.423H1109.09V607.443H1110.17ZM1122.78 600.463C1122.42 600.463 1122.14 600.603 1121.94 600.883C1121.75 601.163 1121.66 601.563 1121.66 602.083V603.343H1123.74V605.183H1121.66V614.343H1118.7V605.183H1117.04V603.343H1118.7V602.063C1118.7 600.929 1118.99 600.056 1119.58 599.443C1120.18 598.816 1121.03 598.503 1122.14 598.503C1122.9 598.503 1123.5 598.629 1123.96 598.883C1124.42 599.123 1124.66 599.443 1124.66 599.843C1124.66 600.016 1124.63 600.189 1124.58 600.363C1124.52 600.523 1124.45 600.656 1124.36 600.763C1123.9 600.563 1123.38 600.463 1122.78 600.463ZM1125.5 598.523H1128.46V614.343H1125.5V598.523ZM1131.25 603.343H1134.21V614.343H1131.25V603.343ZM1132.59 601.323C1131.55 601.323 1131.03 600.803 1131.03 599.763V599.463C1131.03 598.423 1131.55 597.903 1132.59 597.903H1132.87C1133.91 597.903 1134.43 598.423 1134.43 599.463V599.763C1134.43 600.803 1133.91 601.323 1132.87 601.323H1132.59ZM1141.94 614.543C1138.26 614.543 1136.42 612.623 1136.42 608.783C1136.42 607.023 1136.89 605.643 1137.84 604.643C1138.78 603.643 1140.09 603.143 1141.76 603.143C1143.06 603.143 1144.14 603.469 1144.98 604.123C1145.83 604.763 1146.33 605.636 1146.48 606.743C1145.7 607.209 1145.06 607.443 1144.56 607.443C1144.34 607.443 1144.16 607.376 1144.02 607.243C1143.88 607.109 1143.77 606.896 1143.68 606.603C1143.48 606.043 1143.23 605.649 1142.94 605.423C1142.64 605.183 1142.25 605.063 1141.76 605.063C1141.01 605.063 1140.43 605.383 1140.02 606.023C1139.62 606.663 1139.42 607.583 1139.42 608.783C1139.42 610.076 1139.62 611.029 1140.02 611.643C1140.43 612.243 1141.07 612.543 1141.94 612.543C1142.54 612.543 1143.01 612.343 1143.36 611.943C1143.7 611.529 1143.96 610.876 1144.14 609.983C1144.87 609.983 1145.4 610.116 1145.72 610.383C1146.04 610.649 1146.2 611.083 1146.2 611.683C1146.2 612.189 1146 612.663 1145.6 613.103C1145.21 613.543 1144.69 613.896 1144.04 614.163C1143.38 614.416 1142.68 614.543 1141.94 614.543ZM1155.42 603.143C1156.38 603.143 1157.14 603.436 1157.7 604.023C1158.26 604.609 1158.54 605.409 1158.54 606.423V614.343H1155.58V606.763C1155.58 606.229 1155.48 605.849 1155.28 605.623C1155.08 605.383 1154.75 605.263 1154.3 605.263C1153.41 605.263 1152.49 605.649 1151.54 606.423V614.343H1148.58V598.523H1151.54V604.683C1152.05 604.216 1152.65 603.843 1153.34 603.563C1154.05 603.283 1154.74 603.143 1155.42 603.143ZM1167.8 612.403C1167.94 612.443 1168.06 612.529 1168.14 612.663C1168.22 612.796 1168.26 612.956 1168.26 613.143C1168.26 613.423 1168.17 613.649 1168 613.823C1167.78 614.036 1167.43 614.209 1166.94 614.343C1166.46 614.476 1165.92 614.543 1165.34 614.543C1164.42 614.543 1163.68 614.289 1163.12 613.783C1162.56 613.263 1162.28 612.576 1162.28 611.723V605.223H1160.6V603.343H1162.28V600.343H1165.24V603.343H1167.32V605.223H1165.24V611.463C1165.24 611.929 1165.31 612.263 1165.46 612.463C1165.62 612.649 1165.89 612.743 1166.28 612.743C1166.7 612.743 1167.21 612.629 1167.8 612.403ZM1169.96 616.463C1170.63 614.876 1171.14 613.309 1171.5 611.763C1171.86 610.216 1172.04 608.543 1172.04 606.743C1172.04 604.956 1171.86 603.296 1171.5 601.763C1171.14 600.216 1170.63 598.649 1169.96 597.063H1172.04C1173.08 598.436 1173.84 599.949 1174.32 601.603C1174.82 603.243 1175.06 604.956 1175.06 606.743C1175.06 608.543 1174.82 610.276 1174.32 611.943C1173.84 613.596 1173.08 615.103 1172.04 616.463H1169.96Z" fill="#323031"/>
<g clip-path="url(#clip1_293_4638)">
<rect x="467.5" y="404.343" width="262" height="62" rx="31" fill="#E8E8E8"/>
<rect x="467.5" y="404.343" width="62" height="62" rx="31" fill="#727272"/>
<path d="M492.388 444.878C492.388 445.872 491.993 446.826 491.29 447.53C490.587 448.233 489.633 448.628 488.638 448.628C487.644 448.628 486.69 448.233 485.987 447.53C485.283 446.826 484.888 445.872 484.888 444.878C484.888 443.883 485.283 442.93 485.987 442.226C486.69 441.523 487.644 441.128 488.638 441.128C489.633 441.128 490.587 441.523 491.29 442.226C491.993 442.93 492.388 443.883 492.388 444.878ZM511.138 444.878C511.138 445.872 510.743 446.826 510.04 447.53C509.337 448.233 508.383 448.628 507.388 448.628C506.394 448.628 505.44 448.233 504.737 447.53C504.033 446.826 503.638 445.872 503.638 444.878C503.638 443.883 504.033 442.93 504.737 442.226C505.44 441.523 506.394 441.128 507.388 441.128C508.383 441.128 509.337 441.523 510.04 442.226C510.743 442.93 511.138 443.883 511.138 444.878Z" stroke="white" stroke-width="1.5"/>
<path d="M479.263 431.753H509.263M479.263 431.753C479.263 433.215 479.226 437.453 479.271 441.615C479.338 442.965 479.563 444.09 484.892 444.878M479.263 431.753C479.668 428.49 481.429 424.628 482.329 423.165M492.388 431.753V422.378M503.619 444.878H492.379M479.293 422.378H498.45C498.45 422.378 499.463 422.378 500.363 422.468C502.048 422.625 503.464 423.39 504.881 425.303C506.381 427.328 507.534 429.893 509.063 431.265C511.603 433.545 516.437 432.84 516.707 437.678C516.774 440.153 516.774 442.853 516.662 443.303C516.482 444.629 515.46 444.844 514.189 444.878C513.086 444.908 511.757 444.825 511.108 444.878" stroke="white" stroke-width="1.5" stroke-linecap="round"/>
<path d="M540.344 430.323V434.769H545.69V435.849H540.344V441.843H539.048V429.243H546.464V430.323H540.344ZM555.613 439.377C555.613 439.929 555.655 440.367 555.739 440.691C555.835 441.003 555.997 441.285 556.225 441.537C556.105 441.657 555.961 441.753 555.793 441.825C555.637 441.897 555.487 441.933 555.343 441.933C555.103 441.933 554.899 441.795 554.731 441.519C554.575 441.243 554.473 440.865 554.425 440.385C554.053 440.889 553.555 441.291 552.931 441.591C552.307 441.879 551.653 442.023 550.969 442.023C550.057 442.023 549.325 441.789 548.773 441.321C548.221 440.841 547.945 440.217 547.945 439.449C547.945 438.321 548.491 437.439 549.583 436.803C550.687 436.167 552.289 435.801 554.389 435.705V435.129C554.389 434.337 554.185 433.749 553.777 433.365C553.381 432.969 552.775 432.771 551.959 432.771C551.431 432.771 550.939 432.885 550.483 433.113C550.039 433.329 549.559 433.695 549.043 434.211C548.971 434.283 548.881 434.319 548.773 434.319C548.653 434.319 548.521 434.271 548.377 434.175C548.233 434.067 548.095 433.917 547.963 433.725C548.503 433.089 549.115 432.603 549.799 432.267C550.495 431.931 551.233 431.763 552.013 431.763C553.129 431.763 554.005 432.063 554.641 432.663C555.289 433.263 555.613 434.085 555.613 435.129V439.377ZM551.059 441.015C551.707 441.015 552.319 440.835 552.895 440.475C553.471 440.115 553.969 439.605 554.389 438.945V436.713C550.933 436.857 549.205 437.763 549.205 439.431C549.205 440.487 549.823 441.015 551.059 441.015ZM563.436 431.763C564.468 431.763 565.284 432.063 565.884 432.663C566.484 433.251 566.784 434.055 566.784 435.075V441.843H565.56V435.201C565.56 434.421 565.368 433.821 564.984 433.401C564.6 432.981 564.048 432.771 563.328 432.771C562.776 432.771 562.194 432.897 561.582 433.149C560.97 433.389 560.424 433.713 559.944 434.121V441.843H558.72V427.605H559.944V432.951C560.472 432.567 561.036 432.273 561.636 432.069C562.236 431.865 562.836 431.763 563.436 431.763ZM573.928 431.817C574.348 431.817 574.666 431.889 574.882 432.033C575.11 432.165 575.224 432.369 575.224 432.645C575.224 432.837 575.158 433.011 575.026 433.167C574.738 433.011 574.342 432.933 573.838 432.933C573.034 432.933 572.386 433.251 571.894 433.887C571.414 434.523 571.174 435.357 571.174 436.389V441.843H569.95V431.943H571.174V433.725C571.45 433.173 571.84 432.717 572.344 432.357C572.848 431.997 573.376 431.817 573.928 431.817ZM580.037 442.023C579.497 442.023 578.939 441.933 578.363 441.753C577.787 441.573 577.307 441.333 576.923 441.033C576.539 440.733 576.347 440.415 576.347 440.079C576.347 439.923 576.395 439.785 576.491 439.665C576.599 439.533 576.731 439.443 576.887 439.395C577.319 439.959 577.787 440.373 578.291 440.637C578.795 440.889 579.401 441.015 580.109 441.015C580.865 441.015 581.435 440.841 581.819 440.493C582.215 440.145 582.413 439.683 582.413 439.107C582.413 438.723 582.293 438.411 582.053 438.171C581.825 437.931 581.537 437.751 581.189 437.631C580.853 437.511 580.385 437.373 579.785 437.217C579.089 437.037 578.525 436.863 578.093 436.695C577.673 436.527 577.313 436.275 577.013 435.939C576.725 435.591 576.581 435.129 576.581 434.553C576.581 433.941 576.743 433.425 577.067 433.005C577.391 432.585 577.805 432.273 578.309 432.069C578.813 431.865 579.329 431.763 579.857 431.763C580.613 431.763 581.297 431.913 581.909 432.213C582.533 432.513 583.019 432.951 583.367 433.527C583.079 433.827 582.833 433.977 582.629 433.977C582.473 433.977 582.323 433.893 582.179 433.725C581.891 433.389 581.555 433.143 581.171 432.987C580.799 432.819 580.343 432.735 579.803 432.735C579.191 432.735 578.705 432.879 578.345 433.167C577.985 433.455 577.805 433.899 577.805 434.499C577.805 434.847 577.913 435.129 578.129 435.345C578.345 435.561 578.615 435.729 578.939 435.849C579.263 435.957 579.707 436.083 580.271 436.227C580.991 436.395 581.573 436.569 582.017 436.749C582.473 436.929 582.857 437.211 583.169 437.595C583.481 437.967 583.637 438.471 583.637 439.107C583.637 439.995 583.307 440.703 582.647 441.231C581.999 441.759 581.129 442.023 580.037 442.023ZM590.519 440.637C590.603 440.697 590.669 440.787 590.717 440.907C590.777 441.015 590.807 441.129 590.807 441.249C590.807 441.477 590.711 441.639 590.519 441.735C590.135 441.927 589.637 442.023 589.025 442.023C588.245 442.023 587.621 441.813 587.153 441.393C586.685 440.961 586.451 440.385 586.451 439.665V432.915H584.579V431.943H586.451V429.243H587.675V431.943H590.267V432.915H587.675V439.431C587.675 440.439 588.107 440.943 588.971 440.943C589.523 440.943 590.039 440.841 590.519 440.637ZM600.402 439.809C600.402 440.505 600.492 441.141 600.672 441.717C600.42 441.861 600.162 441.933 599.898 441.933C599.646 441.933 599.46 441.831 599.34 441.627C599.232 441.411 599.172 441.027 599.16 440.475C598.824 440.943 598.35 441.321 597.738 441.609C597.126 441.885 596.466 442.023 595.758 442.023C593.73 442.023 592.716 440.913 592.716 438.693V431.943H593.94V438.567C593.94 439.443 594.102 440.079 594.426 440.475C594.75 440.859 595.266 441.051 595.974 441.051C596.61 441.051 597.204 440.889 597.756 440.565C598.32 440.241 598.788 439.785 599.16 439.197V431.943H600.402V439.809ZM611.442 439.539C611.442 440.271 611.448 440.769 611.46 441.033C611.484 441.285 611.532 441.513 611.604 441.717C611.316 441.861 611.004 441.933 610.668 441.933C610.488 441.933 610.368 441.807 610.308 441.555C610.248 441.291 610.218 440.775 610.218 440.007V435.129C610.218 434.289 610.062 433.683 609.75 433.311C609.438 432.927 608.934 432.735 608.238 432.735C607.158 432.735 606.054 433.269 604.926 434.337V441.843H603.702V435.309C603.702 433.533 603.63 432.477 603.486 432.141C603.87 431.961 604.176 431.871 604.404 431.871C604.752 431.871 604.926 432.219 604.926 432.915V433.077C605.478 432.621 606.03 432.291 606.582 432.087C607.146 431.871 607.74 431.763 608.364 431.763C609.396 431.763 610.164 432.045 610.668 432.609C611.184 433.161 611.442 434.007 611.442 435.147V439.539ZM622.194 439.539C622.194 439.923 622.218 440.313 622.266 440.709C622.314 441.105 622.374 441.435 622.446 441.699C622.146 441.843 621.87 441.915 621.618 441.915C621.294 441.915 621.09 441.507 621.006 440.691C620.61 441.171 620.178 441.513 619.71 441.717C619.242 441.921 618.666 442.023 617.982 442.023C616.674 442.023 615.648 441.573 614.904 440.673C614.16 439.761 613.788 438.513 613.788 436.929C613.788 435.297 614.184 434.031 614.976 433.131C615.78 432.219 616.896 431.763 618.324 431.763C618.768 431.763 619.236 431.847 619.728 432.015C620.232 432.171 620.646 432.369 620.97 432.609V427.605H622.194V439.539ZM618.072 441.015C618.684 441.015 619.224 440.889 619.692 440.637C620.16 440.385 620.586 439.995 620.97 439.467V433.797C620.682 433.497 620.286 433.245 619.782 433.041C619.29 432.837 618.804 432.735 618.324 432.735C617.268 432.735 616.458 433.095 615.894 433.815C615.33 434.535 615.048 435.573 615.048 436.929C615.048 438.249 615.306 439.263 615.822 439.971C616.338 440.667 617.088 441.015 618.072 441.015ZM633.186 436.191C633.186 436.467 633.174 436.743 633.15 437.019H625.986C626.01 438.267 626.286 439.239 626.814 439.935C627.354 440.631 628.098 440.979 629.046 440.979C629.694 440.979 630.24 440.853 630.684 440.601C631.14 440.349 631.518 439.947 631.818 439.395C631.902 439.239 632.028 439.161 632.196 439.161C632.388 439.161 632.652 439.275 632.988 439.503C632.724 440.283 632.238 440.901 631.53 441.357C630.822 441.801 629.994 442.023 629.046 442.023C628.17 442.023 627.402 441.819 626.742 441.411C626.094 440.991 625.596 440.397 625.248 439.629C624.9 438.849 624.726 437.931 624.726 436.875C624.726 435.279 625.122 434.031 625.914 433.131C626.706 432.219 627.792 431.763 629.172 431.763C630.432 431.763 631.416 432.153 632.124 432.933C632.832 433.713 633.186 434.799 633.186 436.191ZM631.926 436.047C631.926 433.887 630.99 432.807 629.118 432.807C628.206 432.807 627.486 433.083 626.958 433.635C626.43 434.187 626.118 434.991 626.022 436.047H631.926ZM643.258 439.539C643.258 440.271 643.264 440.769 643.276 441.033C643.3 441.285 643.348 441.513 643.42 441.717C643.132 441.861 642.82 441.933 642.484 441.933C642.304 441.933 642.184 441.807 642.124 441.555C642.064 441.291 642.034 440.775 642.034 440.007V435.129C642.034 434.289 641.878 433.683 641.566 433.311C641.254 432.927 640.75 432.735 640.054 432.735C638.974 432.735 637.87 433.269 636.742 434.337V441.843H635.518V435.309C635.518 433.533 635.446 432.477 635.302 432.141C635.686 431.961 635.992 431.871 636.22 431.871C636.568 431.871 636.742 432.219 636.742 432.915V433.077C637.294 432.621 637.846 432.291 638.398 432.087C638.962 431.871 639.556 431.763 640.18 431.763C641.212 431.763 641.98 432.045 642.484 432.609C643 433.161 643.258 434.007 643.258 435.147V439.539Z" fill="#323031"/>
</g>
<g clip-path="url(#clip2_293_4638)">
<rect x="932.5" y="517.343" width="262" height="62" rx="31" fill="#E8E8E8"/>
<rect x="932.5" y="517.343" width="62" height="62" rx="31" fill="#727272"/>
<path d="M957.388 557.878C957.388 558.872 956.993 559.826 956.29 560.53C955.587 561.233 954.633 561.628 953.638 561.628C952.644 561.628 951.69 561.233 950.987 560.53C950.283 559.826 949.888 558.872 949.888 557.878C949.888 556.883 950.283 555.93 950.987 555.226C951.69 554.523 952.644 554.128 953.638 554.128C954.633 554.128 955.587 554.523 956.29 555.226C956.993 555.93 957.388 556.883 957.388 557.878ZM976.138 557.878C976.138 558.872 975.743 559.826 975.04 560.53C974.337 561.233 973.383 561.628 972.388 561.628C971.394 561.628 970.44 561.233 969.737 560.53C969.033 559.826 968.638 558.872 968.638 557.878C968.638 556.883 969.033 555.93 969.737 555.226C970.44 554.523 971.394 554.128 972.388 554.128C973.383 554.128 974.337 554.523 975.04 555.226C975.743 555.93 976.138 556.883 976.138 557.878Z" stroke="white" stroke-width="1.5"/>
<path d="M944.263 544.753H974.263M944.263 544.753C944.263 546.215 944.226 550.453 944.271 554.615C944.338 555.965 944.563 557.09 949.892 557.878M944.263 544.753C944.668 541.49 946.429 537.628 947.329 536.165M957.388 544.753V535.378M968.619 557.878H957.379M944.293 535.378H963.45C963.45 535.378 964.463 535.378 965.363 535.468C967.048 535.625 968.464 536.39 969.881 538.303C971.381 540.328 972.534 542.893 974.063 544.265C976.603 546.545 981.437 545.84 981.707 550.678C981.774 553.153 981.774 555.853 981.662 556.303C981.482 557.629 980.46 557.844 979.189 557.878C978.086 557.908 976.757 557.825 976.108 557.878" stroke="white" stroke-width="1.5" stroke-linecap="round"/>
<path d="M1008.3 555.023C1007.47 555.023 1006.71 554.897 1006.01 554.645C1005.31 554.381 1004.76 554.027 1004.35 553.583C1003.95 553.139 1003.74 552.653 1003.74 552.125C1003.74 551.885 1003.83 551.693 1003.99 551.549C1004.17 551.393 1004.41 551.309 1004.7 551.297C1004.89 552.149 1005.3 552.797 1005.92 553.241C1006.54 553.685 1007.35 553.907 1008.33 553.907C1009.34 553.907 1010.15 553.673 1010.76 553.205C1011.39 552.737 1011.7 552.125 1011.7 551.369C1011.7 550.925 1011.58 550.547 1011.36 550.235C1011.14 549.923 1010.78 549.647 1010.28 549.407C1009.77 549.155 1009.08 548.915 1008.19 548.687C1007.16 548.411 1006.35 548.123 1005.76 547.823C1005.17 547.511 1004.74 547.163 1004.48 546.779C1004.23 546.383 1004.1 545.897 1004.1 545.321C1004.1 544.313 1004.47 543.521 1005.22 542.945C1005.96 542.357 1006.99 542.063 1008.3 542.063C1009.44 542.063 1010.38 542.333 1011.14 542.873C1011.91 543.401 1012.42 544.151 1012.69 545.123C1012.53 545.279 1012.29 545.357 1011.97 545.357C1011.63 545.357 1011.39 545.195 1011.23 544.871C1010.97 544.343 1010.56 543.923 1010.02 543.611C1009.5 543.299 1008.92 543.143 1008.3 543.143C1007.35 543.143 1006.63 543.329 1006.14 543.701C1005.64 544.073 1005.4 544.613 1005.4 545.321C1005.4 545.681 1005.49 545.987 1005.67 546.239C1005.85 546.479 1006.15 546.701 1006.57 546.905C1006.99 547.109 1007.58 547.319 1008.35 547.535C1009.63 547.895 1010.6 548.237 1011.25 548.561C1011.91 548.885 1012.37 549.251 1012.63 549.659C1012.9 550.067 1013.03 550.601 1013.03 551.261C1013.03 552.017 1012.84 552.683 1012.45 553.259C1012.07 553.823 1011.52 554.261 1010.8 554.573C1010.09 554.873 1009.26 555.023 1008.3 555.023ZM1018.98 555.023C1017.59 555.023 1016.54 554.591 1015.83 553.727C1015.12 552.863 1014.77 551.579 1014.77 549.875C1014.77 546.467 1016.17 544.763 1018.98 544.763C1021.79 544.763 1023.19 546.467 1023.19 549.875C1023.19 551.579 1022.84 552.863 1022.13 553.727C1021.42 554.591 1020.37 555.023 1018.98 555.023ZM1018.98 554.015C1020 554.015 1020.74 553.685 1021.21 553.025C1021.69 552.353 1021.93 551.303 1021.93 549.875C1021.93 548.459 1021.69 547.421 1021.21 546.761C1020.74 546.101 1020 545.771 1018.98 545.771C1017.96 545.771 1017.21 546.101 1016.73 546.761C1016.26 547.421 1016.03 548.459 1016.03 549.875C1016.03 551.303 1016.26 552.353 1016.73 553.025C1017.21 553.685 1017.96 554.015 1018.98 554.015ZM1033.27 552.539C1033.27 553.271 1033.28 553.769 1033.29 554.033C1033.31 554.285 1033.36 554.513 1033.43 554.717C1033.14 554.861 1032.83 554.933 1032.5 554.933C1032.32 554.933 1032.2 554.807 1032.14 554.555C1032.08 554.291 1032.05 553.775 1032.05 553.007V548.129C1032.05 547.289 1031.89 546.683 1031.58 546.311C1031.27 545.927 1030.76 545.735 1030.07 545.735C1028.99 545.735 1027.88 546.269 1026.75 547.337V554.843H1025.53V548.309C1025.53 546.533 1025.46 545.477 1025.31 545.141C1025.7 544.961 1026 544.871 1026.23 544.871C1026.58 544.871 1026.75 545.219 1026.75 545.915V546.077C1027.31 545.621 1027.86 545.291 1028.41 545.087C1028.97 544.871 1029.57 544.763 1030.19 544.763C1031.22 544.763 1031.99 545.045 1032.5 545.609C1033.01 546.161 1033.27 547.007 1033.27 548.147V552.539ZM1044.02 552.539C1044.02 552.923 1044.05 553.313 1044.09 553.709C1044.14 554.105 1044.2 554.435 1044.27 554.699C1043.97 554.843 1043.7 554.915 1043.45 554.915C1043.12 554.915 1042.92 554.507 1042.83 553.691C1042.44 554.171 1042.01 554.513 1041.54 554.717C1041.07 554.921 1040.49 555.023 1039.81 555.023C1038.5 555.023 1037.48 554.573 1036.73 553.673C1035.99 552.761 1035.62 551.513 1035.62 549.929C1035.62 548.297 1036.01 547.031 1036.8 546.131C1037.61 545.219 1038.72 544.763 1040.15 544.763C1040.6 544.763 1041.06 544.847 1041.56 545.015C1042.06 545.171 1042.47 545.369 1042.8 545.609V540.605H1044.02V552.539ZM1039.9 554.015C1040.51 554.015 1041.05 553.889 1041.52 553.637C1041.99 553.385 1042.41 552.995 1042.8 552.467V546.797C1042.51 546.497 1042.11 546.245 1041.61 546.041C1041.12 545.837 1040.63 545.735 1040.15 545.735C1039.1 545.735 1038.29 546.095 1037.72 546.815C1037.16 547.535 1036.88 548.573 1036.88 549.929C1036.88 551.249 1037.13 552.263 1037.65 552.971C1038.17 553.667 1038.92 554.015 1039.9 554.015ZM1055.01 549.191C1055.01 549.467 1055 549.743 1054.98 550.019H1047.81C1047.84 551.267 1048.11 552.239 1048.64 552.935C1049.18 553.631 1049.93 553.979 1050.87 553.979C1051.52 553.979 1052.07 553.853 1052.51 553.601C1052.97 553.349 1053.35 552.947 1053.65 552.395C1053.73 552.239 1053.86 552.161 1054.02 552.161C1054.22 552.161 1054.48 552.275 1054.82 552.503C1054.55 553.283 1054.07 553.901 1053.36 554.357C1052.65 554.801 1051.82 555.023 1050.87 555.023C1050 555.023 1049.23 554.819 1048.57 554.411C1047.92 553.991 1047.42 553.397 1047.08 552.629C1046.73 551.849 1046.55 550.931 1046.55 549.875C1046.55 548.279 1046.95 547.031 1047.74 546.131C1048.53 545.219 1049.62 544.763 1051 544.763C1052.26 544.763 1053.24 545.153 1053.95 545.933C1054.66 546.713 1055.01 547.799 1055.01 549.191ZM1053.75 549.047C1053.75 546.887 1052.82 545.807 1050.95 545.807C1050.03 545.807 1049.31 546.083 1048.79 546.635C1048.26 547.187 1047.95 547.991 1047.85 549.047H1053.75ZM1061.23 544.817C1061.65 544.817 1061.97 544.889 1062.19 545.033C1062.42 545.165 1062.53 545.369 1062.53 545.645C1062.53 545.837 1062.46 546.011 1062.33 546.167C1062.04 546.011 1061.65 545.933 1061.14 545.933C1060.34 545.933 1059.69 546.251 1059.2 546.887C1058.72 547.523 1058.48 548.357 1058.48 549.389V554.843H1057.26V544.943H1058.48V546.725C1058.76 546.173 1059.15 545.717 1059.65 545.357C1060.15 544.997 1060.68 544.817 1061.23 544.817ZM1067.54 540.767C1068.09 540.767 1068.51 540.833 1068.8 540.965C1069.09 541.097 1069.23 541.289 1069.23 541.541C1069.23 541.673 1069.21 541.799 1069.16 541.919C1069.13 542.027 1069.08 542.081 1069.02 542.081C1068.66 541.901 1068.24 541.811 1067.78 541.811C1067.27 541.811 1066.89 541.967 1066.62 542.279C1066.36 542.591 1066.23 543.041 1066.23 543.629V544.943H1068.46V545.879H1066.23V554.843H1065V545.879H1063.15V544.943H1065V543.611C1065 542.747 1065.23 542.057 1065.69 541.541C1066.16 541.025 1066.77 540.767 1067.54 540.767ZM1077.53 552.377C1077.53 552.929 1077.57 553.367 1077.66 553.691C1077.75 554.003 1077.91 554.285 1078.14 554.537C1078.02 554.657 1077.88 554.753 1077.71 554.825C1077.55 554.897 1077.4 554.933 1077.26 554.933C1077.02 554.933 1076.82 554.795 1076.65 554.519C1076.49 554.243 1076.39 553.865 1076.34 553.385C1075.97 553.889 1075.47 554.291 1074.85 554.591C1074.22 554.879 1073.57 555.023 1072.89 555.023C1071.97 555.023 1071.24 554.789 1070.69 554.321C1070.14 553.841 1069.86 553.217 1069.86 552.449C1069.86 551.321 1070.41 550.439 1071.5 549.803C1072.6 549.167 1074.21 548.801 1076.31 548.705V548.129C1076.31 547.337 1076.1 546.749 1075.69 546.365C1075.3 545.969 1074.69 545.771 1073.88 545.771C1073.35 545.771 1072.86 545.885 1072.4 546.113C1071.96 546.329 1071.48 546.695 1070.96 547.211C1070.89 547.283 1070.8 547.319 1070.69 547.319C1070.57 547.319 1070.44 547.271 1070.29 547.175C1070.15 547.067 1070.01 546.917 1069.88 546.725C1070.42 546.089 1071.03 545.603 1071.72 545.267C1072.41 544.931 1073.15 544.763 1073.93 544.763C1075.05 544.763 1075.92 545.063 1076.56 545.663C1077.21 546.263 1077.53 547.085 1077.53 548.129V552.377ZM1072.98 554.015C1073.62 554.015 1074.24 553.835 1074.81 553.475C1075.39 553.115 1075.89 552.605 1076.31 551.945V549.713C1072.85 549.857 1071.12 550.763 1071.12 552.431C1071.12 553.487 1071.74 554.015 1072.98 554.015ZM1085.35 544.763C1086.39 544.763 1087.2 545.063 1087.8 545.663C1088.4 546.251 1088.7 547.055 1088.7 548.075V554.843H1087.48V548.201C1087.48 547.421 1087.29 546.821 1086.9 546.401C1086.52 545.981 1085.97 545.771 1085.25 545.771C1084.69 545.771 1084.11 545.897 1083.5 546.149C1082.89 546.389 1082.34 546.713 1081.86 547.121V554.843H1080.64V540.605H1081.86V545.951C1082.39 545.567 1082.95 545.273 1083.55 545.069C1084.15 544.865 1084.75 544.763 1085.35 544.763ZM1095.85 544.817C1096.27 544.817 1096.58 544.889 1096.8 545.033C1097.03 545.165 1097.14 545.369 1097.14 545.645C1097.14 545.837 1097.08 546.011 1096.94 546.167C1096.66 546.011 1096.26 545.933 1095.76 545.933C1094.95 545.933 1094.3 546.251 1093.81 546.887C1093.33 547.523 1093.09 548.357 1093.09 549.389V554.843H1091.87V544.943H1093.09V546.725C1093.37 546.173 1093.76 545.717 1094.26 545.357C1094.77 544.997 1095.29 544.817 1095.85 544.817ZM1103.7 553.637C1103.78 553.697 1103.85 553.787 1103.9 553.907C1103.96 554.015 1103.99 554.129 1103.99 554.249C1103.99 554.477 1103.89 554.639 1103.7 554.735C1103.32 554.927 1102.82 555.023 1102.21 555.023C1101.43 555.023 1100.8 554.813 1100.33 554.393C1099.87 553.961 1099.63 553.385 1099.63 552.665V545.915H1097.76V544.943H1099.63V542.243H1100.86V544.943H1103.45V545.915H1100.86V552.431C1100.86 553.439 1101.29 553.943 1102.15 553.943C1102.7 553.943 1103.22 553.841 1103.7 553.637ZM1113.64 549.191C1113.64 549.467 1113.63 549.743 1113.6 550.019H1106.44C1106.46 551.267 1106.74 552.239 1107.27 552.935C1107.81 553.631 1108.55 553.979 1109.5 553.979C1110.15 553.979 1110.69 553.853 1111.14 553.601C1111.59 553.349 1111.97 552.947 1112.27 552.395C1112.35 552.239 1112.48 552.161 1112.65 552.161C1112.84 552.161 1113.1 552.275 1113.44 552.503C1113.18 553.283 1112.69 553.901 1111.98 554.357C1111.27 554.801 1110.45 555.023 1109.5 555.023C1108.62 555.023 1107.85 554.819 1107.19 554.411C1106.55 553.991 1106.05 553.397 1105.7 552.629C1105.35 551.849 1105.18 550.931 1105.18 549.875C1105.18 548.279 1105.57 547.031 1106.37 546.131C1107.16 545.219 1108.24 544.763 1109.62 544.763C1110.88 544.763 1111.87 545.153 1112.58 545.933C1113.28 546.713 1113.64 547.799 1113.64 549.191ZM1112.38 549.047C1112.38 546.887 1111.44 545.807 1109.57 545.807C1108.66 545.807 1107.94 546.083 1107.41 546.635C1106.88 547.187 1106.57 547.991 1106.47 549.047H1112.38ZM1123.71 552.539C1123.71 553.271 1123.72 553.769 1123.73 554.033C1123.75 554.285 1123.8 554.513 1123.87 554.717C1123.58 554.861 1123.27 554.933 1122.94 554.933C1122.76 554.933 1122.64 554.807 1122.58 554.555C1122.52 554.291 1122.49 553.775 1122.49 553.007V548.129C1122.49 547.289 1122.33 546.683 1122.02 546.311C1121.71 545.927 1121.2 545.735 1120.51 545.735C1119.43 545.735 1118.32 546.269 1117.19 547.337V554.843H1115.97V548.309C1115.97 546.533 1115.9 545.477 1115.75 545.141C1116.14 544.961 1116.44 544.871 1116.67 544.871C1117.02 544.871 1117.19 545.219 1117.19 545.915V546.077C1117.75 545.621 1118.3 545.291 1118.85 545.087C1119.41 544.871 1120.01 544.763 1120.63 544.763C1121.66 544.763 1122.43 545.045 1122.94 545.609C1123.45 546.161 1123.71 547.007 1123.71 548.147V552.539Z" fill="#323031"/>
</g>
<path d="M51.86 21.456C51.86 22.432 51.772 23.104 51.596 23.472C51.42 23.824 51.092 24 50.612 24H41.084V7.2H51.596V9.744H44.78V14.064H50.444V16.608H44.78V21.456H51.86ZM60.7537 10.632C61.5217 10.632 62.0817 10.8 62.4337 11.136C62.7857 11.456 62.9617 11.976 62.9617 12.696C62.9617 12.968 62.9217 13.24 62.8417 13.512C62.7777 13.768 62.6817 13.968 62.5537 14.112C62.3617 14 62.1457 13.92 61.9057 13.872C61.6657 13.824 61.3217 13.8 60.8737 13.8C59.8337 13.8 59.0577 14.12 58.5457 14.76C58.0497 15.4 57.8017 16.376 57.8017 17.688V24H54.2497V10.8H57.8017V12.552C58.1217 11.928 58.5377 11.456 59.0497 11.136C59.5617 10.8 60.1297 10.632 60.7537 10.632ZM68.9 24.24C67.332 24.24 66.092 24 65.18 23.52C64.284 23.04 63.836 22.424 63.836 21.672C63.836 21.224 63.988 20.848 64.292 20.544C64.612 20.224 65.068 20.048 65.66 20.016C65.996 20.656 66.428 21.136 66.956 21.456C67.5 21.776 68.18 21.936 68.996 21.936C70.404 21.936 71.108 21.408 71.108 20.352C71.108 19.92 70.908 19.592 70.508 19.368C70.108 19.144 69.452 18.88 68.54 18.576C67.612 18.272 66.844 17.976 66.236 17.688C65.644 17.4 65.132 16.984 64.7 16.44C64.268 15.88 64.052 15.16 64.052 14.28C64.052 13.528 64.284 12.872 64.748 12.312C65.228 11.736 65.852 11.304 66.62 11.016C67.404 10.712 68.252 10.56 69.164 10.56C70.332 10.56 71.356 10.784 72.236 11.232C73.116 11.68 73.804 12.28 74.3 13.032C74.092 13.432 73.804 13.784 73.436 14.088C73.084 14.376 72.764 14.52 72.476 14.52C72.316 14.52 72.18 14.496 72.068 14.448C71.956 14.384 71.844 14.288 71.732 14.16C71.012 13.264 70.188 12.816 69.26 12.816C68.652 12.816 68.18 12.936 67.844 13.176C67.524 13.4 67.364 13.744 67.364 14.208C67.364 14.704 67.58 15.08 68.012 15.336C68.46 15.592 69.156 15.856 70.1 16.128C70.996 16.368 71.732 16.624 72.308 16.896C72.9 17.152 73.396 17.544 73.796 18.072C74.212 18.584 74.42 19.264 74.42 20.112C74.42 21.44 73.94 22.464 72.98 23.184C72.036 23.888 70.676 24.24 68.9 24.24ZM83.8252 21.672C84.0012 21.72 84.1372 21.824 84.2332 21.984C84.3292 22.144 84.3772 22.336 84.3772 22.56C84.3772 22.896 84.2732 23.168 84.0652 23.376C83.8092 23.632 83.3852 23.84 82.7932 24C82.2172 24.16 81.5772 24.24 80.8732 24.24C79.7692 24.24 78.8812 23.936 78.2092 23.328C77.5372 22.704 77.2012 21.88 77.2012 20.856V13.056H75.1852V10.8H77.2012V7.2H80.7532V10.8H83.2492V13.056H80.7532V20.544C80.7532 21.104 80.8412 21.504 81.0172 21.744C81.2092 21.968 81.5372 22.08 82.0012 22.08C82.5132 22.08 83.1212 21.944 83.8252 21.672ZM97.5838 16.536C97.5838 16.76 97.5438 17.264 97.4638 18.048H88.9678C89.0478 19.264 89.3358 20.208 89.8318 20.88C90.3438 21.552 91.0078 21.888 91.8238 21.888C92.1918 21.888 92.4958 21.84 92.7358 21.744C92.9918 21.648 93.2478 21.48 93.5038 21.24C93.7758 20.984 94.1278 20.576 94.5598 20.016C94.6398 19.888 94.8078 19.824 95.0638 19.824C95.3358 19.824 95.6638 19.92 96.0478 20.112C96.4478 20.288 96.8718 20.544 97.3198 20.88C96.2798 23.12 94.4478 24.24 91.8238 24.24C89.8078 24.24 88.2238 23.632 87.0718 22.416C85.9198 21.184 85.3438 19.504 85.3438 17.376C85.3438 15.984 85.5998 14.776 86.1118 13.752C86.6398 12.728 87.3838 11.944 88.3438 11.4C89.3198 10.84 90.4718 10.56 91.7998 10.56C93.6398 10.56 95.0638 11.08 96.0718 12.12C97.0798 13.16 97.5838 14.632 97.5838 16.536ZM93.9838 16.032C93.9838 13.888 93.2318 12.816 91.7278 12.816C90.9598 12.816 90.3438 13.088 89.8798 13.632C89.4158 14.176 89.1278 14.976 89.0158 16.032H93.9838ZM99.5056 15.672H108.146V17.592H99.5056V15.672ZM124.573 7.2V24H120.877V16.8H114.637V24H110.941V7.2H114.637V14.16H120.877V7.2H124.573ZM127.602 10.8H131.154V24H127.602V10.8ZM129.21 8.376C127.962 8.376 127.338 7.752 127.338 6.504V6.144C127.338 4.896 127.962 4.272 129.21 4.272H129.546C130.794 4.272 131.418 4.896 131.418 6.144V6.504C131.418 7.752 130.794 8.376 129.546 8.376H129.21ZM134.036 5.016H137.588V24H134.036V5.016ZM145.713 7.344C145.281 7.344 144.945 7.512 144.705 7.848C144.481 8.184 144.369 8.664 144.369 9.288V10.8H146.865V13.008H144.369V24H140.817V13.008H138.825V10.8H140.817V9.264C140.817 7.904 141.169 6.856 141.873 6.12C142.593 5.368 143.617 4.992 144.945 4.992C145.857 4.992 146.585 5.144 147.129 5.448C147.689 5.736 147.969 6.12 147.969 6.6C147.969 6.808 147.937 7.016 147.873 7.224C147.809 7.416 147.721 7.576 147.609 7.704C147.065 7.464 146.433 7.344 145.713 7.344ZM160.503 16.536C160.503 16.76 160.463 17.264 160.383 18.048H151.887C151.967 19.264 152.255 20.208 152.751 20.88C153.263 21.552 153.927 21.888 154.743 21.888C155.111 21.888 155.415 21.84 155.655 21.744C155.911 21.648 156.167 21.48 156.423 21.24C156.695 20.984 157.047 20.576 157.479 20.016C157.559 19.888 157.727 19.824 157.983 19.824C158.255 19.824 158.583 19.92 158.967 20.112C159.367 20.288 159.791 20.544 160.239 20.88C159.199 23.12 157.367 24.24 154.743 24.24C152.727 24.24 151.143 23.632 149.991 22.416C148.839 21.184 148.263 19.504 148.263 17.376C148.263 15.984 148.519 14.776 149.031 13.752C149.559 12.728 150.303 11.944 151.263 11.4C152.239 10.84 153.391 10.56 154.719 10.56C156.559 10.56 157.983 11.08 158.991 12.12C159.999 13.16 160.503 14.632 160.503 16.536ZM156.903 16.032C156.903 13.888 156.151 12.816 154.647 12.816C153.879 12.816 153.263 13.088 152.799 13.632C152.335 14.176 152.047 14.976 151.935 16.032H156.903ZM162.425 15.672H171.065V17.592H162.425V15.672ZM187.996 23.88C187.564 24.12 186.764 24.24 185.596 24.24C184.7 24.24 184.1 23.984 183.796 23.472L180.628 18.288C180.34 17.808 180.1 17.472 179.908 17.28C179.732 17.088 179.532 16.96 179.308 16.896C179.084 16.832 178.748 16.8 178.3 16.8H178.132V24H174.436V7.2H178.132V14.352H179.212L183.892 7.2H187.804L182.308 15.24C182.964 15.704 183.556 16.392 184.084 17.304L187.996 23.88ZM201.482 20.808C201.482 21.544 201.506 22.12 201.554 22.536C201.618 22.952 201.714 23.304 201.842 23.592C201.522 23.752 201.138 23.88 200.69 23.976C200.242 24.072 199.818 24.12 199.418 24.12C198.954 24.12 198.61 24.008 198.386 23.784C198.162 23.56 198.018 23.184 197.954 22.656C197.49 23.168 196.922 23.56 196.25 23.832C195.594 24.104 194.874 24.24 194.09 24.24C192.698 24.24 191.634 23.864 190.898 23.112C190.162 22.344 189.794 21.24 189.794 19.8V10.8H193.346V19.632C193.346 20.48 193.474 21.088 193.73 21.456C194.002 21.808 194.458 21.984 195.098 21.984C196.234 21.984 197.17 21.408 197.906 20.256V10.8H201.482V20.808ZM211.056 10.632C211.824 10.632 212.384 10.8 212.736 11.136C213.088 11.456 213.264 11.976 213.264 12.696C213.264 12.968 213.224 13.24 213.144 13.512C213.08 13.768 212.984 13.968 212.856 14.112C212.664 14 212.448 13.92 212.208 13.872C211.968 13.824 211.624 13.8 211.176 13.8C210.136 13.8 209.36 14.12 208.848 14.76C208.352 15.4 208.104 16.376 208.104 17.688V24H204.552V10.8H208.104V12.552C208.424 11.928 208.84 11.456 209.352 11.136C209.864 10.8 210.432 10.632 211.056 10.632ZM219.202 24.24C217.634 24.24 216.394 24 215.482 23.52C214.586 23.04 214.138 22.424 214.138 21.672C214.138 21.224 214.29 20.848 214.594 20.544C214.914 20.224 215.37 20.048 215.962 20.016C216.298 20.656 216.73 21.136 217.258 21.456C217.802 21.776 218.482 21.936 219.298 21.936C220.706 21.936 221.41 21.408 221.41 20.352C221.41 19.92 221.21 19.592 220.81 19.368C220.41 19.144 219.754 18.88 218.842 18.576C217.914 18.272 217.146 17.976 216.538 17.688C215.946 17.4 215.434 16.984 215.002 16.44C214.57 15.88 214.354 15.16 214.354 14.28C214.354 13.528 214.586 12.872 215.05 12.312C215.53 11.736 216.154 11.304 216.922 11.016C217.706 10.712 218.554 10.56 219.466 10.56C220.634 10.56 221.658 10.784 222.538 11.232C223.418 11.68 224.106 12.28 224.602 13.032C224.394 13.432 224.106 13.784 223.738 14.088C223.386 14.376 223.066 14.52 222.778 14.52C222.618 14.52 222.482 14.496 222.37 14.448C222.258 14.384 222.146 14.288 222.034 14.16C221.314 13.264 220.49 12.816 219.562 12.816C218.954 12.816 218.482 12.936 218.146 13.176C217.826 13.4 217.666 13.744 217.666 14.208C217.666 14.704 217.882 15.08 218.314 15.336C218.762 15.592 219.458 15.856 220.402 16.128C221.298 16.368 222.034 16.624 222.61 16.896C223.202 17.152 223.698 17.544 224.098 18.072C224.514 18.584 224.722 19.264 224.722 20.112C224.722 21.44 224.242 22.464 223.282 23.184C222.338 23.888 220.978 24.24 219.202 24.24Z" fill="#323031"/>
<path d="M602.956 7.2C603.02 7.584 603.052 7.936 603.052 8.256C603.052 8.8 602.964 9.2 602.788 9.456C602.612 9.712 602.332 9.84 601.948 9.84H598.732V24H595.084V9.84H590.86V7.2H602.956ZM612.512 10.56C613.664 10.56 614.576 10.912 615.248 11.616C615.92 12.32 616.256 13.28 616.256 14.496V24H612.704V14.904C612.704 14.264 612.584 13.808 612.344 13.536C612.104 13.248 611.712 13.104 611.168 13.104C610.096 13.104 608.992 13.568 607.856 14.496V24H604.304V5.016H607.856V12.408C608.464 11.848 609.184 11.4 610.016 11.064C610.864 10.728 611.696 10.56 612.512 10.56ZM631.158 16.536C631.158 16.76 631.118 17.264 631.038 18.048H622.542C622.622 19.264 622.91 20.208 623.406 20.88C623.918 21.552 624.582 21.888 625.398 21.888C625.766 21.888 626.07 21.84 626.31 21.744C626.566 21.648 626.822 21.48 627.078 21.24C627.35 20.984 627.702 20.576 628.134 20.016C628.214 19.888 628.382 19.824 628.638 19.824C628.91 19.824 629.238 19.92 629.622 20.112C630.022 20.288 630.446 20.544 630.894 20.88C629.854 23.12 628.022 24.24 625.398 24.24C623.382 24.24 621.798 23.632 620.646 22.416C619.494 21.184 618.918 19.504 618.918 17.376C618.918 15.984 619.174 14.776 619.686 13.752C620.214 12.728 620.958 11.944 621.918 11.4C622.894 10.84 624.046 10.56 625.374 10.56C627.214 10.56 628.638 11.08 629.646 12.12C630.654 13.16 631.158 14.632 631.158 16.536ZM627.558 16.032C627.558 13.888 626.806 12.816 625.302 12.816C624.534 12.816 623.918 13.088 623.454 13.632C622.99 14.176 622.702 14.976 622.59 16.032H627.558ZM638.455 24.24C636.519 24.24 635.015 23.64 633.943 22.44C632.887 21.24 632.359 19.552 632.359 17.376C632.359 15.2 632.887 13.52 633.943 12.336C635.015 11.152 636.519 10.56 638.455 10.56C640.391 10.56 641.887 11.152 642.943 12.336C644.015 13.52 644.551 15.2 644.551 17.376C644.551 19.552 644.015 21.24 642.943 22.44C641.887 23.64 640.391 24.24 638.455 24.24ZM638.455 21.936C639.335 21.936 639.967 21.576 640.351 20.856C640.751 20.136 640.951 18.976 640.951 17.376C640.951 15.792 640.751 14.648 640.351 13.944C639.967 13.224 639.335 12.864 638.455 12.864C637.575 12.864 636.935 13.216 636.535 13.92C636.151 14.624 635.959 15.776 635.959 17.376C635.959 18.976 636.151 20.136 636.535 20.856C636.935 21.576 637.575 21.936 638.455 21.936ZM653.104 10.632C653.872 10.632 654.432 10.8 654.784 11.136C655.136 11.456 655.312 11.976 655.312 12.696C655.312 12.968 655.272 13.24 655.192 13.512C655.128 13.768 655.032 13.968 654.904 14.112C654.712 14 654.496 13.92 654.256 13.872C654.016 13.824 653.672 13.8 653.224 13.8C652.184 13.8 651.408 14.12 650.896 14.76C650.4 15.4 650.152 16.376 650.152 17.688V24H646.6V10.8H650.152V12.552C650.472 11.928 650.888 11.456 651.4 11.136C651.912 10.8 652.48 10.632 653.104 10.632ZM657.05 10.8H660.602V24H657.05V10.8ZM658.658 8.376C657.41 8.376 656.786 7.752 656.786 6.504V6.144C656.786 4.896 657.41 4.272 658.658 4.272H658.994C660.242 4.272 660.866 4.896 660.866 6.144V6.504C660.866 7.752 660.242 8.376 658.994 8.376H658.658ZM675.244 16.536C675.244 16.76 675.204 17.264 675.124 18.048H666.628C666.708 19.264 666.996 20.208 667.492 20.88C668.004 21.552 668.668 21.888 669.484 21.888C669.852 21.888 670.156 21.84 670.396 21.744C670.652 21.648 670.908 21.48 671.164 21.24C671.436 20.984 671.788 20.576 672.22 20.016C672.3 19.888 672.468 19.824 672.724 19.824C672.996 19.824 673.324 19.92 673.708 20.112C674.108 20.288 674.532 20.544 674.98 20.88C673.94 23.12 672.108 24.24 669.484 24.24C667.468 24.24 665.884 23.632 664.732 22.416C663.58 21.184 663.004 19.504 663.004 17.376C663.004 15.984 663.26 14.776 663.772 13.752C664.3 12.728 665.044 11.944 666.004 11.4C666.98 10.84 668.132 10.56 669.46 10.56C671.3 10.56 672.724 11.08 673.732 12.12C674.74 13.16 675.244 14.632 675.244 16.536ZM671.644 16.032C671.644 13.888 670.892 12.816 669.388 12.816C668.62 12.816 668.004 13.088 667.54 13.632C667.076 14.176 666.788 14.976 666.676 16.032H671.644ZM677.166 15.672H685.806V17.592H677.166V15.672ZM694.074 7.2C696.25 7.2 697.906 7.664 699.042 8.592C700.178 9.52 700.746 10.88 700.746 12.672C700.746 14.512 700.162 15.936 698.994 16.944C697.842 17.952 696.202 18.456 694.074 18.456H692.538V24H688.842V7.2H694.074ZM693.834 15.72C694.954 15.72 695.762 15.48 696.258 15C696.754 14.52 697.002 13.744 697.002 12.672C697.002 11.616 696.754 10.856 696.258 10.392C695.762 9.928 694.954 9.696 693.834 9.696H692.538V15.72H693.834ZM709.607 10.632C710.375 10.632 710.935 10.8 711.287 11.136C711.639 11.456 711.815 11.976 711.815 12.696C711.815 12.968 711.775 13.24 711.695 13.512C711.631 13.768 711.535 13.968 711.407 14.112C711.215 14 710.999 13.92 710.759 13.872C710.519 13.824 710.175 13.8 709.727 13.8C708.687 13.8 707.911 14.12 707.399 14.76C706.903 15.4 706.655 16.376 706.655 17.688V24H703.103V10.8H706.655V12.552C706.975 11.928 707.391 11.456 707.903 11.136C708.415 10.8 708.983 10.632 709.607 10.632ZM725.241 20.808C725.241 21.544 725.265 22.12 725.313 22.536C725.377 22.952 725.473 23.304 725.601 23.592C725.281 23.752 724.897 23.88 724.449 23.976C724.001 24.072 723.577 24.12 723.177 24.12C722.713 24.12 722.369 24.008 722.145 23.784C721.921 23.56 721.777 23.184 721.713 22.656C721.249 23.168 720.681 23.56 720.009 23.832C719.353 24.104 718.633 24.24 717.849 24.24C716.457 24.24 715.393 23.864 714.657 23.112C713.921 22.344 713.553 21.24 713.553 19.8V10.8H717.105V19.632C717.105 20.48 717.233 21.088 717.489 21.456C717.761 21.808 718.217 21.984 718.857 21.984C719.993 21.984 720.929 21.408 721.665 20.256V10.8H725.241V20.808ZM716.913 8.64C715.873 8.64 715.353 8.12 715.353 7.08V6.768C715.353 5.728 715.873 5.208 716.913 5.208H717.201C718.241 5.208 718.761 5.728 718.761 6.768V7.08C718.761 8.12 718.241 8.64 717.201 8.64H716.913ZM721.713 8.64C720.673 8.64 720.153 8.12 720.153 7.08V6.768C720.153 5.728 720.673 5.208 721.713 5.208H722.001C723.041 5.208 723.561 5.728 723.561 6.768V7.08C723.561 8.12 723.041 8.64 722.001 8.64H721.713ZM733.687 7.344C733.255 7.344 732.919 7.512 732.679 7.848C732.455 8.184 732.343 8.664 732.343 9.288V10.8H734.839V13.008H732.343V24H728.791V13.008H726.799V10.8H728.791V9.264C728.791 7.904 729.143 6.856 729.847 6.12C730.567 5.368 731.591 4.992 732.919 4.992C733.831 4.992 734.559 5.144 735.103 5.448C735.663 5.736 735.943 6.12 735.943 6.6C735.943 6.808 735.911 7.016 735.847 7.224C735.783 7.416 735.695 7.576 735.583 7.704C735.039 7.464 734.407 7.344 733.687 7.344ZM748.644 20.808C748.644 21.544 748.668 22.12 748.716 22.536C748.78 22.952 748.876 23.304 749.004 23.592C748.684 23.752 748.3 23.88 747.852 23.976C747.404 24.072 746.98 24.12 746.58 24.12C746.116 24.12 745.772 24.008 745.548 23.784C745.324 23.56 745.18 23.184 745.116 22.656C744.652 23.168 744.084 23.56 743.412 23.832C742.756 24.104 742.036 24.24 741.252 24.24C739.86 24.24 738.796 23.864 738.06 23.112C737.324 22.344 736.956 21.24 736.956 19.8V10.8H740.508V19.632C740.508 20.48 740.636 21.088 740.892 21.456C741.164 21.808 741.62 21.984 742.26 21.984C743.396 21.984 744.332 21.408 745.068 20.256V10.8H748.644V20.808ZM763.113 20.688C763.113 21.488 763.145 22.088 763.209 22.488C763.273 22.888 763.393 23.256 763.569 23.592C762.625 23.944 761.649 24.12 760.641 24.12C760.241 24.12 759.961 23.928 759.801 23.544C759.641 23.16 759.561 22.496 759.561 21.552V15.288C759.561 14.456 759.433 13.88 759.177 13.56C758.937 13.224 758.505 13.056 757.881 13.056C757.049 13.056 756.137 13.464 755.145 14.28V24H751.593V15.12C751.593 14.048 751.569 13.224 751.521 12.648C751.489 12.072 751.417 11.608 751.305 11.256C752.489 10.888 753.457 10.704 754.209 10.704C754.545 10.704 754.785 10.816 754.929 11.04C755.073 11.248 755.145 11.6 755.145 12.096V12.384C755.961 11.696 756.649 11.224 757.209 10.968C757.785 10.696 758.385 10.56 759.009 10.56C760.385 10.56 761.409 10.936 762.081 11.688C762.769 12.424 763.113 13.552 763.113 15.072V20.688ZM771.978 21C773.882 21 775.346 21.328 776.37 21.984C777.394 22.624 777.906 23.544 777.906 24.744C777.906 26.04 777.33 27.064 776.178 27.816C775.026 28.584 773.466 28.968 771.498 28.968C769.514 28.968 767.978 28.648 766.89 28.008C765.818 27.384 765.282 26.488 765.282 25.32C765.282 23.816 766.354 22.96 768.498 22.752V22.68C767.842 22.552 767.33 22.328 766.962 22.008C766.61 21.672 766.434 21.272 766.434 20.808C766.434 20.376 766.61 20 766.962 19.68C767.314 19.344 767.786 19.096 768.378 18.936C767.594 18.536 766.97 18.016 766.506 17.376C766.042 16.736 765.81 16.032 765.81 15.264C765.81 13.76 766.322 12.6 767.346 11.784C768.386 10.968 769.842 10.56 771.714 10.56C772.658 10.56 773.522 10.72 774.306 11.04C774.674 10.544 775.106 10.144 775.602 9.84C776.114 9.536 776.594 9.384 777.042 9.384C777.618 9.384 778.018 9.592 778.242 10.008C778.482 10.408 778.602 11.112 778.602 12.12C777.514 12.12 776.722 12.248 776.226 12.504C776.77 13.224 777.042 14.048 777.042 14.976C777.042 16.448 776.538 17.584 775.53 18.384C774.538 19.184 773.114 19.584 771.258 19.584C770.506 19.584 769.994 19.64 769.722 19.752C769.45 19.848 769.314 20.04 769.314 20.328C769.314 20.536 769.378 20.688 769.506 20.784C769.634 20.864 769.874 20.92 770.226 20.952C770.594 20.984 771.178 21 771.978 21ZM771.402 12.816C770.074 12.816 769.41 13.568 769.41 15.072C769.41 15.824 769.57 16.384 769.89 16.752C770.21 17.104 770.714 17.28 771.402 17.28C772.09 17.28 772.594 17.104 772.914 16.752C773.25 16.384 773.418 15.824 773.418 15.072C773.418 14.304 773.25 13.736 772.914 13.368C772.594 13 772.09 12.816 771.402 12.816ZM771.498 26.664C772.474 26.664 773.218 26.512 773.73 26.208C774.258 25.904 774.522 25.464 774.522 24.888C774.522 23.768 773.546 23.208 771.594 23.208C769.802 23.208 768.906 23.768 768.906 24.888C768.906 25.512 769.106 25.96 769.506 26.232C769.922 26.52 770.586 26.664 771.498 26.664Z" fill="#323031"/>
<path d="M1018.56 7.2C1020.73 7.2 1022.39 7.664 1023.52 8.592C1024.66 9.52 1025.23 10.88 1025.23 12.672C1025.23 14.512 1024.64 15.936 1023.48 16.944C1022.32 17.952 1020.68 18.456 1018.56 18.456H1017.02V24H1013.32V7.2H1018.56ZM1018.32 15.72C1019.44 15.72 1020.24 15.48 1020.74 15C1021.24 14.52 1021.48 13.744 1021.48 12.672C1021.48 11.616 1021.24 10.856 1020.74 10.392C1020.24 9.928 1019.44 9.696 1018.32 9.696H1017.02V15.72H1018.32ZM1034.09 10.632C1034.86 10.632 1035.42 10.8 1035.77 11.136C1036.12 11.456 1036.3 11.976 1036.3 12.696C1036.3 12.968 1036.26 13.24 1036.18 13.512C1036.11 13.768 1036.02 13.968 1035.89 14.112C1035.7 14 1035.48 13.92 1035.24 13.872C1035 13.824 1034.66 13.8 1034.21 13.8C1033.17 13.8 1032.39 14.12 1031.88 14.76C1031.39 15.4 1031.14 16.376 1031.14 17.688V24H1027.59V10.8H1031.14V12.552C1031.46 11.928 1031.87 11.456 1032.39 11.136C1032.9 10.8 1033.47 10.632 1034.09 10.632ZM1048.5 19.032C1048.5 20.344 1048.55 21.288 1048.64 21.864C1048.76 22.44 1048.97 22.936 1049.29 23.352C1048.96 23.592 1048.52 23.792 1048 23.952C1047.47 24.096 1046.99 24.168 1046.56 24.168C1046.16 24.168 1045.84 24.024 1045.6 23.736C1045.36 23.448 1045.18 22.992 1045.07 22.368C1044.64 23.04 1044.12 23.52 1043.53 23.808C1042.94 24.096 1042.17 24.24 1041.23 24.24C1040.06 24.24 1039.12 23.928 1038.4 23.304C1037.68 22.664 1037.32 21.832 1037.32 20.808C1037.32 19.368 1037.92 18.296 1039.12 17.592C1040.33 16.872 1042.28 16.44 1044.95 16.296V15.048C1044.95 14.392 1044.77 13.904 1044.42 13.584C1044.08 13.264 1043.56 13.104 1042.86 13.104C1042.35 13.104 1041.84 13.208 1041.32 13.416C1040.83 13.608 1040.21 13.952 1039.48 14.448C1039.4 14.512 1039.28 14.544 1039.14 14.544C1038.85 14.544 1038.54 14.352 1038.2 13.968C1037.88 13.584 1037.6 13.08 1037.34 12.456C1037.96 11.912 1038.84 11.464 1039.96 11.112C1041.09 10.744 1042.21 10.56 1043.32 10.56C1044.98 10.56 1046.26 10.952 1047.16 11.736C1048.05 12.504 1048.5 13.608 1048.5 15.048V19.032ZM1042.48 21.936C1042.96 21.936 1043.4 21.768 1043.8 21.432C1044.21 21.096 1044.6 20.576 1044.95 19.872V18.096C1043.62 18.144 1042.61 18.368 1041.92 18.768C1041.25 19.152 1040.92 19.704 1040.92 20.424C1040.92 20.888 1041.06 21.256 1041.35 21.528C1041.64 21.8 1042.01 21.936 1042.48 21.936ZM1058.54 24C1058.48 23.104 1058.22 22.256 1057.77 21.456C1057.34 20.656 1056.75 19.84 1056 19.008C1055.24 19.84 1054.64 20.656 1054.2 21.456C1053.76 22.256 1053.52 23.104 1053.45 24H1050.14C1050.22 22.704 1050.6 21.52 1051.29 20.448C1052 19.36 1052.94 18.232 1054.12 17.064C1053.31 16.248 1052.64 15.544 1052.13 14.952C1051.62 14.344 1051.18 13.696 1050.81 13.008C1050.46 12.304 1050.25 11.568 1050.19 10.8H1053.5C1053.52 11.536 1053.74 12.256 1054.17 12.96C1054.6 13.648 1055.21 14.392 1056 15.192C1056.78 14.392 1057.39 13.648 1057.82 12.96C1058.25 12.256 1058.48 11.536 1058.49 10.8H1061.8C1061.74 11.568 1061.52 12.304 1061.16 13.008C1060.8 13.696 1060.37 14.344 1059.86 14.952C1059.35 15.544 1058.68 16.248 1057.87 17.064C1059.05 18.232 1059.99 19.36 1060.68 20.448C1061.38 21.52 1061.77 22.704 1061.85 24H1058.54ZM1063.67 10.8H1067.22V24H1063.67V10.8ZM1065.27 8.376C1064.03 8.376 1063.4 7.752 1063.4 6.504V6.144C1063.4 4.896 1064.03 4.272 1065.27 4.272H1065.61C1066.86 4.272 1067.48 4.896 1067.48 6.144V6.504C1067.48 7.752 1066.86 8.376 1065.61 8.376H1065.27ZM1074.54 24.24C1072.97 24.24 1071.73 24 1070.82 23.52C1069.92 23.04 1069.48 22.424 1069.48 21.672C1069.48 21.224 1069.63 20.848 1069.93 20.544C1070.25 20.224 1070.71 20.048 1071.3 20.016C1071.64 20.656 1072.07 21.136 1072.6 21.456C1073.14 21.776 1073.82 21.936 1074.64 21.936C1076.04 21.936 1076.75 21.408 1076.75 20.352C1076.75 19.92 1076.55 19.592 1076.15 19.368C1075.75 19.144 1075.09 18.88 1074.18 18.576C1073.25 18.272 1072.48 17.976 1071.88 17.688C1071.28 17.4 1070.77 16.984 1070.34 16.44C1069.91 15.88 1069.69 15.16 1069.69 14.28C1069.69 13.528 1069.92 12.872 1070.39 12.312C1070.87 11.736 1071.49 11.304 1072.26 11.016C1073.04 10.712 1073.89 10.56 1074.8 10.56C1075.97 10.56 1077 10.784 1077.88 11.232C1078.76 11.68 1079.44 12.28 1079.94 13.032C1079.73 13.432 1079.44 13.784 1079.08 14.088C1078.72 14.376 1078.4 14.52 1078.12 14.52C1077.96 14.52 1077.82 14.496 1077.71 14.448C1077.6 14.384 1077.48 14.288 1077.37 14.16C1076.65 13.264 1075.83 12.816 1074.9 12.816C1074.29 12.816 1073.82 12.936 1073.48 13.176C1073.16 13.4 1073 13.744 1073 14.208C1073 14.704 1073.22 15.08 1073.65 15.336C1074.1 15.592 1074.8 15.856 1075.74 16.128C1076.64 16.368 1077.37 16.624 1077.95 16.896C1078.54 17.152 1079.04 17.544 1079.44 18.072C1079.85 18.584 1080.06 19.264 1080.06 20.112C1080.06 21.44 1079.58 22.464 1078.62 23.184C1077.68 23.888 1076.32 24.24 1074.54 24.24ZM1081.98 15.672H1090.62V17.592H1081.98V15.672ZM1098.88 7.2C1101.06 7.2 1102.72 7.664 1103.85 8.592C1104.99 9.52 1105.56 10.88 1105.56 12.672C1105.56 14.512 1104.97 15.936 1103.8 16.944C1102.65 17.952 1101.01 18.456 1098.88 18.456H1097.35V24H1093.65V7.2H1098.88ZM1098.64 15.72C1099.76 15.72 1100.57 15.48 1101.07 15C1101.56 14.52 1101.81 13.744 1101.81 12.672C1101.81 11.616 1101.56 10.856 1101.07 10.392C1100.57 9.928 1099.76 9.696 1098.64 9.696H1097.35V15.72H1098.64ZM1114.42 10.632C1115.19 10.632 1115.75 10.8 1116.1 11.136C1116.45 11.456 1116.63 11.976 1116.63 12.696C1116.63 12.968 1116.59 13.24 1116.51 13.512C1116.44 13.768 1116.35 13.968 1116.22 14.112C1116.03 14 1115.81 13.92 1115.57 13.872C1115.33 13.824 1114.99 13.8 1114.54 13.8C1113.5 13.8 1112.72 14.12 1112.21 14.76C1111.71 15.4 1111.47 16.376 1111.47 17.688V24H1107.91V10.8H1111.47V12.552C1111.79 11.928 1112.2 11.456 1112.71 11.136C1113.23 10.8 1113.79 10.632 1114.42 10.632ZM1130.05 20.808C1130.05 21.544 1130.08 22.12 1130.12 22.536C1130.19 22.952 1130.28 23.304 1130.41 23.592C1130.09 23.752 1129.71 23.88 1129.26 23.976C1128.81 24.072 1128.39 24.12 1127.99 24.12C1127.52 24.12 1127.18 24.008 1126.96 23.784C1126.73 23.56 1126.59 23.184 1126.52 22.656C1126.06 23.168 1125.49 23.56 1124.82 23.832C1124.16 24.104 1123.44 24.24 1122.66 24.24C1121.27 24.24 1120.2 23.864 1119.47 23.112C1118.73 22.344 1118.36 21.24 1118.36 19.8V10.8H1121.92V19.632C1121.92 20.48 1122.04 21.088 1122.3 21.456C1122.57 21.808 1123.03 21.984 1123.67 21.984C1124.8 21.984 1125.74 21.408 1126.48 20.256V10.8H1130.05V20.808ZM1121.72 8.64C1120.68 8.64 1120.16 8.12 1120.16 7.08V6.768C1120.16 5.728 1120.68 5.208 1121.72 5.208H1122.01C1123.05 5.208 1123.57 5.728 1123.57 6.768V7.08C1123.57 8.12 1123.05 8.64 1122.01 8.64H1121.72ZM1126.52 8.64C1125.48 8.64 1124.96 8.12 1124.96 7.08V6.768C1124.96 5.728 1125.48 5.208 1126.52 5.208H1126.81C1127.85 5.208 1128.37 5.728 1128.37 6.768V7.08C1128.37 8.12 1127.85 8.64 1126.81 8.64H1126.52ZM1138.5 7.344C1138.06 7.344 1137.73 7.512 1137.49 7.848C1137.26 8.184 1137.15 8.664 1137.15 9.288V10.8H1139.65V13.008H1137.15V24H1133.6V13.008H1131.61V10.8H1133.6V9.264C1133.6 7.904 1133.95 6.856 1134.66 6.12C1135.38 5.368 1136.4 4.992 1137.73 4.992C1138.64 4.992 1139.37 5.144 1139.91 5.448C1140.47 5.736 1140.75 6.12 1140.75 6.6C1140.75 6.808 1140.72 7.016 1140.66 7.224C1140.59 7.416 1140.5 7.576 1140.39 7.704C1139.85 7.464 1139.22 7.344 1138.5 7.344ZM1153.45 20.808C1153.45 21.544 1153.48 22.12 1153.53 22.536C1153.59 22.952 1153.69 23.304 1153.81 23.592C1153.49 23.752 1153.11 23.88 1152.66 23.976C1152.21 24.072 1151.79 24.12 1151.39 24.12C1150.93 24.12 1150.58 24.008 1150.36 23.784C1150.13 23.56 1149.99 23.184 1149.93 22.656C1149.46 23.168 1148.89 23.56 1148.22 23.832C1147.57 24.104 1146.85 24.24 1146.06 24.24C1144.67 24.24 1143.61 23.864 1142.87 23.112C1142.13 22.344 1141.77 21.24 1141.77 19.8V10.8H1145.32V19.632C1145.32 20.48 1145.45 21.088 1145.7 21.456C1145.97 21.808 1146.43 21.984 1147.07 21.984C1148.21 21.984 1149.14 21.408 1149.88 20.256V10.8H1153.45V20.808ZM1167.92 20.688C1167.92 21.488 1167.96 22.088 1168.02 22.488C1168.08 22.888 1168.2 23.256 1168.38 23.592C1167.44 23.944 1166.46 24.12 1165.45 24.12C1165.05 24.12 1164.77 23.928 1164.61 23.544C1164.45 23.16 1164.37 22.496 1164.37 21.552V15.288C1164.37 14.456 1164.24 13.88 1163.99 13.56C1163.75 13.224 1163.32 13.056 1162.69 13.056C1161.86 13.056 1160.95 13.464 1159.96 14.28V24H1156.4V15.12C1156.4 14.048 1156.38 13.224 1156.33 12.648C1156.3 12.072 1156.23 11.608 1156.12 11.256C1157.3 10.888 1158.27 10.704 1159.02 10.704C1159.36 10.704 1159.6 10.816 1159.74 11.04C1159.88 11.248 1159.96 11.6 1159.96 12.096V12.384C1160.77 11.696 1161.46 11.224 1162.02 10.968C1162.6 10.696 1163.2 10.56 1163.82 10.56C1165.2 10.56 1166.22 10.936 1166.89 11.688C1167.58 12.424 1167.92 13.552 1167.92 15.072V20.688ZM1176.79 21C1178.69 21 1180.16 21.328 1181.18 21.984C1182.2 22.624 1182.72 23.544 1182.72 24.744C1182.72 26.04 1182.14 27.064 1180.99 27.816C1179.84 28.584 1178.28 28.968 1176.31 28.968C1174.32 28.968 1172.79 28.648 1171.7 28.008C1170.63 27.384 1170.09 26.488 1170.09 25.32C1170.09 23.816 1171.16 22.96 1173.31 22.752V22.68C1172.65 22.552 1172.14 22.328 1171.77 22.008C1171.42 21.672 1171.24 21.272 1171.24 20.808C1171.24 20.376 1171.42 20 1171.77 19.68C1172.12 19.344 1172.6 19.096 1173.19 18.936C1172.4 18.536 1171.78 18.016 1171.32 17.376C1170.85 16.736 1170.62 16.032 1170.62 15.264C1170.62 13.76 1171.13 12.6 1172.16 11.784C1173.2 10.968 1174.65 10.56 1176.52 10.56C1177.47 10.56 1178.33 10.72 1179.12 11.04C1179.48 10.544 1179.92 10.144 1180.41 9.84C1180.92 9.536 1181.4 9.384 1181.85 9.384C1182.43 9.384 1182.83 9.592 1183.05 10.008C1183.29 10.408 1183.41 11.112 1183.41 12.12C1182.32 12.12 1181.53 12.248 1181.04 12.504C1181.58 13.224 1181.85 14.048 1181.85 14.976C1181.85 16.448 1181.35 17.584 1180.34 18.384C1179.35 19.184 1177.92 19.584 1176.07 19.584C1175.32 19.584 1174.8 19.64 1174.53 19.752C1174.26 19.848 1174.12 20.04 1174.12 20.328C1174.12 20.536 1174.19 20.688 1174.32 20.784C1174.44 20.864 1174.68 20.92 1175.04 20.952C1175.4 20.984 1175.99 21 1176.79 21ZM1176.21 12.816C1174.88 12.816 1174.22 13.568 1174.22 15.072C1174.22 15.824 1174.38 16.384 1174.7 16.752C1175.02 17.104 1175.52 17.28 1176.21 17.28C1176.9 17.28 1177.4 17.104 1177.72 16.752C1178.06 16.384 1178.23 15.824 1178.23 15.072C1178.23 14.304 1178.06 13.736 1177.72 13.368C1177.4 13 1176.9 12.816 1176.21 12.816ZM1176.31 26.664C1177.28 26.664 1178.03 26.512 1178.54 26.208C1179.07 25.904 1179.33 25.464 1179.33 24.888C1179.33 23.768 1178.36 23.208 1176.4 23.208C1174.61 23.208 1173.72 23.768 1173.72 24.888C1173.72 25.512 1173.92 25.96 1174.32 26.232C1174.73 26.52 1175.4 26.664 1176.31 26.664Z" fill="#323031"/>
<defs>
<clipPath id="clip0_293_4638">
<rect x="1.5" y="291.343" width="262" height="62" rx="31" fill="white"/>
</clipPath>
<clipPath id="clip1_293_4638">
<rect x="467.5" y="404.343" width="262" height="62" rx="31" fill="white"/>
</clipPath>
<clipPath id="clip2_293_4638">
<rect x="932.5" y="517.343" width="262" height="62" rx="31" fill="white"/>
</clipPath>
</defs>
</svg>
